<svg width="12" height="11" viewBox="0 0 12 11" fill="none" xmlns="http://www.w3.org/2000/svg">
<path d="M1.06571 10.7503V9.11385L9.71525 0.468235C9.78725 0.396232 9.86318 0.346485 9.94304 0.318992C10.0229 0.2915 10.1023 0.277536 10.1813 0.2771C10.2638 0.2771 10.3463 0.291064 10.4287 0.318992C10.5116 0.346485 10.5837 0.396232 10.6447 0.468235L11.3471 1.17125C11.4191 1.23234 11.4691 1.30434 11.497 1.38726C11.5245 1.46973 11.5382 1.55199 11.5382 1.63403C11.5382 1.71389 11.5245 1.79375 11.497 1.87361C11.4695 1.95346 11.4193 2.02939 11.3464 2.1014L2.70214 10.7503H1.06571ZM1.72028 10.0957H2.42264L9.33232 3.18995L8.98736 2.82863L8.62604 2.48367L1.72028 9.39335V10.0957ZM8.98736 2.82863L8.62604 2.48367L9.33232 3.18995L8.98736 2.82863ZM7.13296 10.7503C7.85648 10.7503 8.52829 10.5779 9.14839 10.2332C9.76849 9.88843 10.0785 9.40623 10.0785 8.78656C10.0785 8.41084 9.95199 8.07701 9.69888 7.78507C9.44578 7.49313 9.07726 7.25137 8.59331 7.0598L8.09321 7.55989C8.51214 7.70259 8.83877 7.87932 9.07311 8.0901C9.30745 8.30087 9.4244 8.53302 9.42396 8.78656C9.42396 9.15487 9.1977 9.46514 8.74517 9.71737C8.29221 9.9696 7.7548 10.0957 7.13296 10.0957C7.04001 10.0957 6.96211 10.1269 6.89927 10.1893C6.83643 10.2517 6.80523 10.3296 6.80567 10.423C6.8061 10.5164 6.83731 10.5943 6.89927 10.6567C6.96124 10.7191 7.03913 10.7503 7.13296 10.7503ZM1.46762 6.51061L1.94545 6.01968C1.65177 5.89051 1.43183 5.75654 1.28564 5.61777C1.13902 5.47856 1.06571 5.33478 1.06571 5.18641C1.06571 4.98829 1.18702 4.79432 1.42965 4.60449C1.67184 4.4151 2.13048 4.17552 2.80557 3.88577C3.6648 3.52182 4.24432 3.19366 4.54411 2.90129C4.84347 2.60978 4.99315 2.28053 4.99315 1.91353C4.99315 1.43962 4.78042 1.04841 4.35494 0.739883C3.92947 0.431361 3.37854 0.2771 2.70214 0.2771C2.295 0.2771 1.90836 0.351721 1.54224 0.500964C1.17568 0.650643 0.9097 0.833924 0.744311 1.05081C0.683217 1.12586 0.657253 1.20659 0.666417 1.293C0.675581 1.3794 0.717692 1.45206 0.79275 1.51097C0.866935 1.56334 0.945483 1.58516 1.0284 1.57643C1.11044 1.56727 1.182 1.53192 1.2431 1.47039C1.42114 1.29234 1.63213 1.15816 1.87607 1.06783C2.12044 0.977058 2.3958 0.931674 2.70214 0.931674C3.21664 0.931674 3.61811 1.02855 3.90656 1.2223C4.19457 1.41693 4.33858 1.64734 4.33858 1.91353C4.33858 2.14176 4.21792 2.34795 3.9766 2.53211C3.73528 2.71626 3.25853 2.96653 2.54635 3.2829C1.73206 3.63943 1.17262 3.95428 0.868026 4.22745C0.56343 4.50063 0.411133 4.82028 0.411133 5.18641C0.411133 5.45173 0.5019 5.69457 0.683436 5.91495C0.864534 6.13488 1.12636 6.33344 1.46762 6.51061Z" fill="#19A38C"/>
</svg>
