<svg width="14" height="13" viewBox="0 0 14 13" fill="none" xmlns="http://www.w3.org/2000/svg">
<path d="M4.50138 0.624268H2.0284C1.86443 0.624268 1.70718 0.689404 1.59124 0.805347C1.47529 0.921291 1.41016 1.07854 1.41016 1.24251V3.71549M4.50138 11.7527H2.0284C1.86443 11.7527 1.70718 11.6875 1.59124 11.5716C1.47529 11.4557 1.41016 11.2984 1.41016 11.1344V8.66146M9.44735 11.7527H11.9203C12.0843 11.7527 12.2416 11.6875 12.3575 11.5716C12.4734 11.4557 12.5386 11.2984 12.5386 11.1344V8.66146M9.44735 0.624268H11.9203C12.0843 0.624268 12.2416 0.689404 12.3575 0.805347C12.4734 0.921291 12.5386 1.07854 12.5386 1.24251V3.71549" stroke="#19A38C" stroke-linecap="round" stroke-linejoin="round"/>
<path d="M10.0653 6.18864C10.0653 4.4814 8.68128 3.09741 6.97404 3.09741C5.2668 3.09741 3.88281 4.4814 3.88281 6.18864C3.88281 7.89588 5.2668 9.27987 6.97404 9.27987C8.68128 9.27987 10.0653 7.89588 10.0653 6.18864Z" stroke="#19A38C"/>
<path d="M6.974 7.11572C6.46183 7.11572 6.04663 6.70053 6.04663 6.18835C6.04663 5.67618 6.46183 5.26099 6.974 5.26099C7.48617 5.26099 7.90137 5.67618 7.90137 6.18835C7.90137 6.70053 7.48617 7.11572 6.974 7.11572Z" fill="#19A38C"/>
</svg>
