<svg width="18" height="10" viewBox="0 0 18 10" fill="none" xmlns="http://www.w3.org/2000/svg">
<path d="M1.9914 9.59534C2.77462 9.59534 3.40955 8.96041 3.40955 8.17719C3.40955 7.39396 2.77462 6.75903 1.9914 6.75903C1.20817 6.75903 0.573242 7.39396 0.573242 8.17719C0.573242 8.96041 1.20817 9.59534 1.9914 9.59534Z" stroke="#19A38C" stroke-width="0.5" stroke-linecap="round" stroke-linejoin="round"/>
<path d="M7.47675 4.11097C8.25997 4.11097 8.8949 3.47604 8.8949 2.69281C8.8949 1.90959 8.25997 1.27466 7.47675 1.27466C6.69352 1.27466 6.05859 1.90959 6.05859 2.69281C6.05859 3.47604 6.69352 4.11097 7.47675 4.11097Z" stroke="#19A38C" stroke-width="0.5" stroke-linecap="round" stroke-linejoin="round"/>
<path d="M11.3059 7.9408C12.0891 7.9408 12.724 7.30587 12.724 6.52265C12.724 5.73942 12.0891 5.10449 11.3059 5.10449C10.5226 5.10449 9.8877 5.73942 9.8877 6.52265C9.8877 7.30587 10.5226 7.9408 11.3059 7.9408Z" stroke="#19A38C" stroke-width="0.5" stroke-linecap="round" stroke-linejoin="round"/>
<path d="M15.9562 3.29163C16.7395 3.29163 17.3744 2.6567 17.3744 1.87348C17.3744 1.09025 16.7395 0.455322 15.9562 0.455322C15.173 0.455322 14.5381 1.09025 14.5381 1.87348C14.5381 2.6567 15.173 3.29163 15.9562 3.29163Z" stroke="#19A38C" stroke-width="0.5" stroke-linecap="round" stroke-linejoin="round"/>
<path d="M14.9528 2.87598L12.3086 5.52015M8.4785 3.69491L10.3033 5.51972M2.99414 7.17438L6.47405 3.69447" stroke="#19A38C" stroke-width="0.5" stroke-linecap="round" stroke-linejoin="round"/>
</svg>
