<svg width="14" height="13" viewBox="0 0 14 13" fill="none" xmlns="http://www.w3.org/2000/svg">
<path d="M8.55372 12.04V10.946C8.60292 10.5479 8.95894 10.2796 9.35968 10.2796H9.80157C10.1574 10.2796 10.4987 10.1382 10.7503 9.88658C11.002 9.63495 11.1433 9.29366 11.1433 8.9378V7.70069C11.6443 7.72037 11.9037 7.67923 12.2024 7.49496C12.5021 7.31069 12.6014 6.92784 12.4994 6.5915C11.6031 3.63067 10.205 0.660889 6.22263 0.660889C3.17055 0.659995 1.41016 2.22539 1.41016 5.35618C1.41016 7.49496 1.96923 8.21325 2.64458 9.30634C3.0167 9.90745 3.17324 10.6105 3.17234 11.3181C3.17055 11.5704 3.17055 11.828 3.17055 12.04" stroke="#19A38C" stroke-linecap="round" stroke-linejoin="round"/>
<path d="M8.73578 6.07836C8.73584 6.102 8.7437 6.12495 8.75814 6.14366L9.07033 6.53725C9.12693 6.60763 9.16089 6.69349 9.16776 6.78354C9.17462 6.87359 9.15407 6.96361 9.10879 7.04175L8.92542 7.35841C8.88053 7.4369 8.81291 7.49995 8.73147 7.53923C8.65003 7.57852 8.55859 7.59219 8.46922 7.57846L7.97187 7.50332C7.94845 7.49988 7.92455 7.50429 7.90389 7.51584L7.3153 7.85576C7.29482 7.86816 7.27908 7.88705 7.27057 7.90943L7.0863 8.37636C7.05376 8.4607 6.99642 8.5332 6.92185 8.5843C6.84727 8.6354 6.75897 8.6627 6.66857 8.66261H6.30361C6.2132 8.6627 6.1249 8.6354 6.05032 8.5843C5.97575 8.5332 5.91841 8.4607 5.88587 8.37636L5.70249 7.90853C5.69382 7.88649 5.67809 7.86793 5.65777 7.85576L5.06918 7.51584C5.04852 7.50429 5.02462 7.49988 5.0012 7.50332L4.50385 7.57846C4.41448 7.59219 4.32304 7.57852 4.2416 7.53923C4.16015 7.49995 4.09253 7.4369 4.04765 7.35841L3.86427 7.04175C3.8188 6.96351 3.79813 6.87331 3.805 6.78308C3.81187 6.69284 3.84595 6.60681 3.90274 6.53635L4.21582 6.14366C4.23058 6.12507 4.23876 6.1021 4.23907 6.07836V5.39853C4.23876 5.3748 4.23058 5.35183 4.21582 5.33324L3.90274 4.93965C3.84614 4.86927 3.81217 4.78341 3.80531 4.69336C3.79844 4.60331 3.819 4.51329 3.86427 4.43515L4.04765 4.11849C4.09253 4.03999 4.16015 3.97695 4.2416 3.93766C4.32304 3.89838 4.41448 3.8847 4.50385 3.89844L4.99941 3.97358C5.02283 3.97701 5.04673 3.97261 5.06739 3.96105L5.65777 3.61935C5.67809 3.60718 5.69382 3.58862 5.70249 3.56658L5.88676 3.10143C5.91931 3.01709 5.97665 2.94459 6.05122 2.89349C6.12579 2.84239 6.2141 2.81509 6.3045 2.81519H6.67125C6.76165 2.81509 6.84996 2.84239 6.92453 2.89349C6.9991 2.94459 7.05644 3.01709 7.08899 3.10143L7.27236 3.56658C7.2807 3.58928 7.29646 3.60851 7.31709 3.62114L7.90657 3.96105C7.92723 3.97261 7.95113 3.97701 7.97455 3.97358L8.4719 3.89844C8.56127 3.8847 8.65271 3.89838 8.73415 3.93766C8.81559 3.97695 8.88322 4.03999 8.9281 4.11849L9.11058 4.43515C9.15618 4.5133 9.177 4.60345 9.17029 4.69368C9.16358 4.78391 9.12966 4.86999 9.07301 4.94054L8.75993 5.33413C8.74536 5.35248 8.73719 5.3751 8.73668 5.39853L8.73578 6.07836Z" stroke="#19A38C" stroke-linecap="round" stroke-linejoin="round"/>
<path d="M6.48657 5.29094C6.37666 5.28806 6.26905 5.32277 6.18154 5.38933C6.00532 5.53693 5.99369 5.87326 6.14039 6.0459C6.18464 6.09272 6.23848 6.12943 6.29823 6.15351C6.35798 6.1776 6.42222 6.18849 6.48657 6.18545M6.48657 5.29094C6.59928 5.29094 6.71288 5.32403 6.7907 5.38933C6.96782 5.53693 6.97855 5.87416 6.83274 6.0459C6.7885 6.09272 6.73466 6.12943 6.67491 6.15351C6.61516 6.1776 6.55092 6.18849 6.48657 6.18545" stroke="#19A38C" stroke-linecap="round" stroke-linejoin="round"/>
</svg>
