<svg width="8" height="12" viewBox="0 0 8 12" fill="none" xmlns="http://www.w3.org/2000/svg">
<path d="M0.782679 0.690369C0.689975 0.782882 0.616427 0.892771 0.566246 1.01374C0.516065 1.13472 0.490234 1.2644 0.490234 1.39537C0.490234 1.52634 0.516065 1.65602 0.566246 1.77699C0.616427 1.89797 0.689975 2.00785 0.782679 2.10037L4.66268 5.98037L0.782679 9.86037C0.595701 10.0473 0.490658 10.3009 0.490658 10.5654C0.490658 10.8298 0.595701 11.0834 0.782679 11.2704C0.969656 11.4573 1.22325 11.5624 1.48768 11.5624C1.7521 11.5624 2.0057 11.4573 2.19268 11.2704L6.78268 6.68037C6.87538 6.58785 6.94893 6.47797 6.99911 6.35699C7.04929 6.23602 7.07512 6.10634 7.07512 5.97537C7.07512 5.8444 7.04929 5.71472 6.99911 5.59374C6.94893 5.47277 6.87538 5.36288 6.78268 5.27037L2.19268 0.680369C1.81268 0.300369 1.17268 0.300369 0.782679 0.690369Z" fill="#5D4E64"/>
</svg>
