<svg width="7" height="12" viewBox="0 0 7 12" fill="none" xmlns="http://www.w3.org/2000/svg">
<path d="M6.65189 0.690369C6.7446 0.782882 6.81814 0.892771 6.86832 1.01374C6.91851 1.13472 6.94434 1.2644 6.94434 1.39537C6.94434 1.52634 6.91851 1.65602 6.86832 1.77699C6.81814 1.89797 6.7446 2.00785 6.65189 2.10037L2.77189 5.98037L6.65189 9.86037C6.83887 10.0473 6.94391 10.3009 6.94391 10.5654C6.94391 10.8298 6.83887 11.0834 6.65189 11.2704C6.46491 11.4573 6.21132 11.5624 5.94689 11.5624C5.68247 11.5624 5.42887 11.4573 5.24189 11.2704L0.651892 6.68037C0.559188 6.58785 0.485641 6.47797 0.435459 6.35699C0.385278 6.23602 0.359448 6.10634 0.359448 5.97537C0.359448 5.8444 0.385278 5.71472 0.435459 5.59374C0.485641 5.47277 0.559188 5.36288 0.651892 5.27037L5.24189 0.680369C5.62189 0.300369 6.26189 0.300369 6.65189 0.690369Z" fill="#5D4E64"/>
</svg>
