<svg width="85" height="253" viewBox="0 0 85 253" fill="none" xmlns="http://www.w3.org/2000/svg">
<path d="M82.1348 251.899C82.1348 252.451 82.5825 252.899 83.1348 252.899C83.687 252.899 84.1348 252.451 84.1348 251.899L82.1348 251.899ZM0.583145 6.06005L6.35665 11.8336L12.1302 6.06006L6.35665 0.286552L0.583145 6.06005ZM83.1348 30.5319L82.1348 30.5319L82.1348 251.899L83.1348 251.899L84.1348 251.899L84.1348 30.5319L83.1348 30.5319ZM6.35665 6.06006L6.35665 7.06006L58.6629 7.06006L58.6629 6.06006L58.6629 5.06006L6.35665 5.06006L6.35665 6.06006ZM83.1348 30.5319L84.1348 30.5319C84.1348 16.4642 72.7306 5.06006 58.6629 5.06006L58.6629 6.06006L58.6629 7.06006C71.626 7.06006 82.1348 17.5688 82.1348 30.5319L83.1348 30.5319Z" fill="white"/>
</svg>
