<svg width="163" height="213" viewBox="0 0 163 213" fill="none" xmlns="http://www.w3.org/2000/svg">
<path d="M160.507 211.576C160.507 212.129 160.955 212.576 161.507 212.576C162.06 212.576 162.507 212.129 162.507 211.576L160.507 211.576ZM0.636154 6.46557L6.40965 12.2391L12.1832 6.46557L6.40965 0.692067L0.636154 6.46557ZM161.507 30.9375L160.507 30.9375L160.507 211.576L161.507 211.576L162.507 211.576L162.507 30.9375L161.507 30.9375ZM6.40965 6.46557L6.40965 7.46557L137.035 7.46558L137.035 6.46558L137.035 5.46558L6.40965 5.46557L6.40965 6.46557ZM161.507 30.9375L162.507 30.9375C162.507 16.8697 151.103 5.46558 137.035 5.46558L137.035 6.46558L137.035 7.46558C149.999 7.46558 160.507 17.9743 160.507 30.9375L161.507 30.9375Z" fill="white"/>
</svg>
