<svg width="262" height="158" viewBox="0 0 262 158" fill="none" xmlns="http://www.w3.org/2000/svg">
<path d="M261.944 1.24828C261.944 0.695984 261.497 0.248276 260.944 0.248276C260.392 0.248276 259.944 0.695984 259.944 1.24828L261.944 1.24828ZM5.92344 118.473L0.149937 124.246L5.92344 130.02L11.6969 124.246L5.92344 118.473ZM236.472 156.346L236.472 155.346L30.3953 155.346L30.3953 156.346L30.3953 157.346L236.472 157.346L236.472 156.346ZM260.944 1.24828L259.944 1.24828L259.944 131.874L260.944 131.874L261.944 131.874L261.944 1.24828L260.944 1.24828ZM5.92343 131.874L6.92343 131.874L6.92344 124.246L5.92344 124.246L4.92344 124.246L4.92343 131.874L5.92343 131.874ZM30.3953 156.346L30.3953 155.346C17.4321 155.346 6.92343 144.837 6.92343 131.874L5.92343 131.874L4.92343 131.874C4.92343 145.942 16.3276 157.346 30.3953 157.346L30.3953 156.346ZM236.472 156.346L236.472 157.346C250.54 157.346 261.944 145.942 261.944 131.874L260.944 131.874L259.944 131.874C259.944 144.837 249.436 155.346 236.472 155.346L236.472 156.346Z" fill="white"/>
</svg>
