<svg width="262" height="146" viewBox="0 0 262 146" fill="none" xmlns="http://www.w3.org/2000/svg">
<path d="M262.005 144.496C262.005 145.048 261.557 145.496 261.005 145.496C260.453 145.496 260.005 145.048 260.005 144.496H262.005ZM5.98422 72.2058L0.210724 66.4323L5.98422 60.6587L11.7577 66.4323L5.98422 72.2058ZM236.533 1.46582V2.46582L30.4561 2.46582V1.46582V0.46582L236.533 0.46582V1.46582ZM261.005 144.496H260.005L260.005 25.9377L261.005 25.9377L262.005 25.9377L262.005 144.496H261.005ZM5.98422 25.9377L6.98422 25.9377L6.98422 66.4323H5.98422H4.98422L4.98422 25.9377L5.98422 25.9377ZM30.4561 1.46582V2.46582C17.4929 2.46582 6.98422 12.9745 6.98422 25.9377L5.98422 25.9377L4.98422 25.9377C4.98422 11.87 16.3884 0.46582 30.4561 0.46582V1.46582ZM236.533 1.46582V0.46582C250.601 0.46582 262.005 11.87 262.005 25.9377L261.005 25.9377L260.005 25.9377C260.005 12.9746 249.496 2.46582 236.533 2.46582V1.46582Z" fill="white"/>
</svg>
