<svg width="279" height="137" viewBox="0 0 279 137" fill="none" xmlns="http://www.w3.org/2000/svg">
<path d="M1.55939 134.751C1.00711 134.751 0.559387 135.199 0.559387 135.751C0.559387 136.304 1.00711 136.751 1.55939 136.751L1.55939 134.751ZM273.11 0.45668L267.337 6.23018L273.11 12.0037L278.884 6.23018L273.11 0.45668ZM248.638 135.751L248.638 134.751L1.55939 134.751L1.55939 135.751L1.55939 136.751L248.638 136.751L248.638 135.751ZM273.11 6.23018L272.11 6.23018L272.11 111.28L273.11 111.28L274.11 111.28L274.11 6.23018L273.11 6.23018ZM248.638 135.751L248.638 136.751C262.706 136.751 274.11 125.347 274.11 111.28L273.11 111.28L272.11 111.28C272.11 124.243 261.602 134.751 248.638 134.751L248.638 135.751Z" fill="white"/>
</svg>
