<svg width="253" height="212" viewBox="0 0 253 212" fill="none" xmlns="http://www.w3.org/2000/svg">
<path d="M251.91 2.06004C252.463 2.06004 252.91 1.61233 252.91 1.06004C252.91 0.507758 252.463 0.0600431 251.91 0.0600432L251.91 2.06004ZM6.0713 211.701L11.8448 205.927L6.0713 200.154L0.297799 205.927L6.0713 211.701ZM30.5432 1.06006L30.5432 2.06006L251.91 2.06004L251.91 1.06004L251.91 0.0600432L30.5432 0.0600571L30.5432 1.06006ZM6.0713 205.927L7.0713 205.927L7.07129 25.5319L6.07129 25.5319L5.07129 25.5319L5.0713 205.927L6.0713 205.927ZM30.5432 1.06006L30.5432 0.0600571C16.4754 0.0600579 5.07129 11.4642 5.07129 25.5319L6.07129 25.5319L7.07129 25.5319C7.07129 12.5688 17.58 2.06006 30.5432 2.06006L30.5432 1.06006Z" fill="white"/>
</svg>
