<svg width="150" height="140" viewBox="0 0 150 140" fill="none" xmlns="http://www.w3.org/2000/svg">
<path d="M148.828 2.81006C149.381 2.81006 149.828 2.36234 149.828 1.81006C149.828 1.25777 149.381 0.810059 148.828 0.810059V2.81006ZM5.90137 139.948L11.6749 134.175L5.90137 128.401L0.127864 134.175L5.90137 139.948ZM30.3732 1.81006V2.81006L148.828 2.81006V1.81006V0.810059L30.3732 0.810059V1.81006ZM5.90137 134.175H6.90137L6.90137 26.2819H5.90137H4.90137L4.90137 134.175H5.90137ZM30.3732 1.81006V0.810059C16.3055 0.810059 4.90137 12.2142 4.90137 26.2819H5.90137H6.90137C6.90137 13.3188 17.4101 2.81006 30.3732 2.81006V1.81006Z" fill="white"/>
</svg>
