<svg width="158" height="326" viewBox="0 0 158 326" fill="none" xmlns="http://www.w3.org/2000/svg">
<path d="M156.416 325.797C156.968 325.797 157.416 325.349 157.416 324.797C157.416 324.245 156.968 323.797 156.416 323.797L156.416 325.797ZM39.1913 6.05969L33.4178 0.286192L27.6443 6.05969L33.4178 11.8332L39.1913 6.05969ZM1.31836 300.325L2.31836 300.325L2.31835 30.5315L1.31835 30.5315L0.318347 30.5315L0.318358 300.325L1.31836 300.325ZM156.416 324.797L156.416 323.797L25.7902 323.797L25.7902 324.797L25.7902 325.797L156.416 325.797L156.416 324.797ZM25.7902 6.05969L25.7902 7.05969L33.4178 7.05969L33.4178 6.05969L33.4178 5.05969L25.7902 5.05969L25.7902 6.05969ZM1.31835 30.5315L2.31835 30.5315C2.31835 17.5684 12.8271 7.05969 25.7902 7.05969L25.7902 6.05969L25.7902 5.05969C11.7225 5.05969 0.318346 16.4638 0.318347 30.5315L1.31835 30.5315ZM1.31836 300.325L0.318358 300.325C0.318359 314.393 11.7225 325.797 25.7902 325.797L25.7902 324.797L25.7902 323.797C12.8271 323.797 2.31836 313.288 2.31836 300.325L1.31836 300.325Z" fill="white"/>
</svg>
