<svg width="283" height="212" viewBox="0 0 283 212" fill="none" xmlns="http://www.w3.org/2000/svg">
<path d="M281.594 2.20288C282.147 2.20288 282.594 1.75517 282.594 1.20288C282.594 0.650596 282.147 0.202881 281.594 0.202881V2.20288ZM6.31836 211.844L12.0919 206.07L6.31836 200.297L0.544857 206.07L6.31836 211.844ZM30.7902 1.20288V2.20288H281.594V1.20288V0.202881H30.7902V1.20288ZM6.31836 206.07H7.31836V25.6748H6.31836H5.31836V206.07H6.31836ZM30.7902 1.20288V0.202881C16.7225 0.202881 5.31836 11.607 5.31836 25.6748H6.31836H7.31836C7.31836 12.7116 17.8271 2.20288 30.7902 2.20288V1.20288Z" fill="white"/>
</svg>
