<svg width="48" height="48" viewBox="0 0 48 48" fill="none" xmlns="http://www.w3.org/2000/svg">
<rect x="0.753906" y="1.44141" width="45.8213" height="45.8213" rx="22.9106" fill="#FF75BE" stroke="white" stroke-dasharray="2 2"/>
<mask id="path-2-inside-1_1_27390" fill="white">
<path d="M25.7601 15.4297L27.3941 17.7217L35.6641 15.4297M17.1671 33.2777L21.6411 28.9037L18.9491 26.0137M25.0821 15.4297L22.6911 17.5837L26.7131 17.7337M15.7881 15.4307L16.6451 17.1907L21.3791 17.4847M18.3211 24.5567L21.8181 18.0347L11.6641 17.4837M18.7281 24.9687L22.0311 28.5167L25.6741 24.9467L26.8041 18.2947L22.3651 18.0667L18.7281 24.9687Z"/>
</mask>
<path d="M25.7601 15.4297L27.3941 17.7217L35.6641 15.4297M17.1671 33.2777L21.6411 28.9037L18.9491 26.0137M25.0821 15.4297L22.6911 17.5837L26.7131 17.7337M15.7881 15.4307L16.6451 17.1907L21.3791 17.4847M18.3211 24.5567L21.8181 18.0347L11.6641 17.4837M18.7281 24.9687L22.0311 28.5167L25.6741 24.9467L26.8041 18.2947L22.3651 18.0667L18.7281 24.9687Z" fill="white"/>
<path d="M27.3941 17.7217L26.5798 18.3022L26.9863 18.8724L27.6611 18.6854L27.3941 17.7217ZM21.6411 28.9037L22.3401 29.6187L23.0381 28.9364L22.3728 28.2221L21.6411 28.9037ZM22.6911 17.5837L22.0217 16.8407L20.1898 18.4911L22.6538 18.583L22.6911 17.5837ZM16.6451 17.1907L15.746 17.6285L16.0012 18.1526L16.5831 18.1888L16.6451 17.1907ZM21.8181 18.0347L22.6994 18.5072L23.4425 17.1214L21.8722 17.0362L21.8181 18.0347ZM18.7281 24.9687L17.8434 24.5025L17.5124 25.1305L17.9961 25.6501L18.7281 24.9687ZM22.0311 28.5167L21.2991 29.1981L21.9982 29.949L22.731 29.2309L22.0311 28.5167ZM25.6741 24.9467L26.374 25.6609L26.6056 25.4339L26.6599 25.1142L25.6741 24.9467ZM26.8041 18.2947L27.7899 18.4622L27.9782 17.3537L26.8554 17.296L26.8041 18.2947ZM22.3651 18.0667L22.4164 17.068L21.7782 17.0352L21.4804 17.6005L22.3651 18.0667ZM25.7601 15.4297L24.9458 16.0102L26.5798 18.3022L27.3941 17.7217L28.2083 17.1412L26.5743 14.8492L25.7601 15.4297ZM27.3941 17.7217L27.6611 18.6854L35.9311 16.3934L35.6641 15.4297L35.397 14.466L27.127 16.758L27.3941 17.7217ZM17.1671 33.2777L17.8661 33.9927L22.3401 29.6187L21.6411 28.9037L20.942 28.1886L16.468 32.5626L17.1671 33.2777ZM21.6411 28.9037L22.3728 28.2221L19.6808 25.3321L18.9491 26.0137L18.2173 26.6953L20.9093 29.5853L21.6411 28.9037ZM25.0821 15.4297L24.4127 14.6867L22.0217 16.8407L22.6911 17.5837L23.3604 18.3267L25.7514 16.1727L25.0821 15.4297ZM22.6911 17.5837L22.6538 18.583L26.6758 18.733L26.7131 17.7337L26.7503 16.7344L22.7283 16.5844L22.6911 17.5837ZM15.7881 15.4307L14.889 15.8685L15.746 17.6285L16.6451 17.1907L17.5441 16.7529L16.6871 14.9929L15.7881 15.4307ZM16.6451 17.1907L16.5831 18.1888L21.3171 18.4828L21.3791 17.4847L21.441 16.4866L16.707 16.1926L16.6451 17.1907ZM18.3211 24.5567L19.2024 25.0292L22.6994 18.5072L21.8181 18.0347L20.9368 17.5621L17.4398 24.0841L18.3211 24.5567ZM21.8181 18.0347L21.8722 17.0362L11.7182 16.4852L11.6641 17.4837L11.6099 18.4822L21.7639 19.0332L21.8181 18.0347ZM18.7281 24.9687L17.9961 25.6501L21.2991 29.1981L22.0311 28.5167L22.763 27.8353L19.46 24.2873L18.7281 24.9687ZM22.0311 28.5167L22.731 29.2309L26.374 25.6609L25.6741 24.9467L24.9741 24.2325L21.3311 27.8025L22.0311 28.5167ZM25.6741 24.9467L26.6599 25.1142L27.7899 18.4622L26.8041 18.2947L25.8182 18.1272L24.6882 24.7792L25.6741 24.9467ZM26.8041 18.2947L26.8554 17.296L22.4164 17.068L22.3651 18.0667L22.3138 19.0654L26.7528 19.2934L26.8041 18.2947ZM22.3651 18.0667L21.4804 17.6005L17.8434 24.5025L18.7281 24.9687L19.6128 25.4349L23.2498 18.5329L22.3651 18.0667Z" fill="white" mask="url(#path-2-inside-1_1_27390)"/>
</svg>
