<svg width="48" height="48" viewBox="0 0 48 48" fill="none" xmlns="http://www.w3.org/2000/svg">
<rect x="1.08203" y="1.44141" width="45.8213" height="45.8213" rx="22.9106" fill="#FF75BE" stroke="white" stroke-dasharray="2 2"/>
<path d="M22.4507 21.1314C20.1534 19.5639 18.0116 20.7605 16.2168 22.6031L20.1893 24.9962M27.2129 25.8936C28.7803 28.1909 27.5838 30.3327 25.7412 32.1275L23.3481 28.155" stroke="white" stroke-linecap="round" stroke-linejoin="round"/>
<path d="M21.9364 21.98L26.3635 26.4072M20.1895 24.9833L23.3602 28.1541C25.8969 26.6345 28.7805 25.1628 30.0967 23.7987C32.9444 20.951 31.2932 17.0503 31.2932 17.0503C31.2932 17.0503 27.3925 15.3991 24.5448 18.2468C23.1808 19.563 21.6971 22.4586 20.1895 24.9833Z" stroke="white" stroke-linecap="round" stroke-linejoin="round"/>
<path d="M28.1821 20.759C28.3407 20.759 28.4929 20.696 28.6051 20.5838C28.7173 20.4716 28.7803 20.3194 28.7803 20.1608C28.7803 20.0021 28.7173 19.8499 28.6051 19.7377C28.4929 19.6255 28.3407 19.5625 28.1821 19.5625C28.0234 19.5625 27.8712 19.6255 27.759 19.7377C27.6468 19.8499 27.5838 20.0021 27.5838 20.1608C27.5838 20.3194 27.6468 20.4716 27.759 20.5838C27.8712 20.696 28.0234 20.759 28.1821 20.759ZM20.0218 30.8577C19.3278 31.5278 16.2168 32.126 16.2168 32.126C16.2168 32.126 16.8151 29.0151 17.4851 28.3211C17.7329 28.0562 18.0551 27.8725 18.4093 27.7943C18.7635 27.716 19.1331 27.7468 19.4694 27.8827C19.8057 28.0185 20.093 28.253 20.2935 28.5553C20.494 28.8576 20.5982 29.2136 20.5925 29.5762C20.5881 29.817 20.5353 30.0544 20.4373 30.2744C20.3392 30.4944 20.1979 30.6935 20.0218 30.8577Z" stroke="white" stroke-linecap="round" stroke-linejoin="round"/>
</svg>
