<svg width="48" height="48" viewBox="0 0 48 48" fill="none" xmlns="http://www.w3.org/2000/svg">
<rect x="1.42578" y="1.44141" width="45.8213" height="45.8213" rx="22.9106" fill="#FF75BE" stroke="white" stroke-dasharray="2 2"/>
<path d="M14.3359 22.3516C15.1159 18.5356 18.0059 15.4816 21.7419 14.4416C22.0559 14.3546 22.2119 14.3106 22.2969 14.4036C22.3819 14.4976 22.3189 14.6516 22.1949 14.9616L21.3359 16.8516M26.3359 14.3516C30.1519 15.1316 33.2059 18.0216 34.2459 21.7576C34.3329 22.0716 34.3769 22.2276 34.2839 22.3126C34.1899 22.3976 34.0359 22.3346 33.7259 22.2106L31.8359 21.3516M34.3359 26.3516C33.5559 30.1676 30.6659 33.2216 26.9299 34.2616C26.6159 34.3486 26.4599 34.3926 26.3749 34.2996C26.2899 34.2056 26.3529 34.0516 26.4769 33.7416L27.3359 31.8516M22.3359 34.3516C18.5199 33.5716 15.4659 30.6816 14.4259 26.9456C14.3389 26.6316 14.2949 26.4756 14.3879 26.3906C14.4819 26.3056 14.6359 26.3686 14.9459 26.4926L16.8359 27.3516M20.9489 24.0166L24.4479 19.5246C24.7219 19.1736 25.2349 19.3926 25.2349 19.8606V23.3366C25.2349 23.6166 25.4349 23.8446 25.6839 23.8446H27.3859C27.7719 23.8446 27.9779 24.3586 27.7229 24.6866L24.2239 29.1786C23.9499 29.5296 23.4369 29.3106 23.4369 28.8426V25.3666C23.4369 25.0866 23.2369 24.8586 22.9879 24.8586H21.2859C20.8999 24.8586 20.6929 24.3446 20.9489 24.0166Z" stroke="white" stroke-width="1.5" stroke-linecap="round" stroke-linejoin="round"/>
</svg>
