<svg width="48" height="48" viewBox="0 0 48 48" fill="none" xmlns="http://www.w3.org/2000/svg">
<rect x="1.09766" y="1.44141" width="45.8213" height="45.8213" rx="22.9106" fill="#FF75BE" stroke="white" stroke-dasharray="2 2"/>
<path d="M14.5078 20.5386C14.6118 18.4386 14.9228 17.1286 15.8548 16.1986C16.7848 15.2666 18.0948 14.9556 20.1948 14.8516M33.5078 20.5386C33.4038 18.4386 33.0928 17.1286 32.1608 16.1986C31.2308 15.2666 29.9208 14.9556 27.8208 14.8516M27.8208 33.8516C29.9208 33.7476 31.2308 33.4366 32.1608 32.5046C33.0928 31.5746 33.4038 30.2646 33.5078 28.1646M20.1948 33.8516C18.0948 33.7476 16.7848 33.4366 15.8548 32.5046C14.9228 31.5746 14.6118 30.2646 14.5078 28.1646M31.6428 23.6696C31.8858 23.9736 32.0078 24.1266 32.0078 24.3516C32.0078 24.5766 31.8858 24.7296 31.6428 25.0336C30.5498 26.4016 27.7588 29.3516 24.0078 29.3516C20.2568 29.3516 17.4658 26.4016 16.3728 25.0336C16.1298 24.7296 16.0078 24.5766 16.0078 24.3516C16.0078 24.1266 16.1298 23.9736 16.3728 23.6696C17.4658 22.3016 20.2568 19.3516 24.0078 19.3516C27.7588 19.3516 30.5498 22.3016 31.6428 23.6696Z" stroke="white" stroke-width="1.5" stroke-linecap="round" stroke-linejoin="round"/>
<path d="M26.0078 24.3516C26.0078 23.8211 25.7971 23.3124 25.422 22.9373C25.047 22.5623 24.5382 22.3516 24.0078 22.3516C23.4774 22.3516 22.9687 22.5623 22.5936 22.9373C22.2185 23.3124 22.0078 23.8211 22.0078 24.3516C22.0078 24.882 22.2185 25.3907 22.5936 25.7658C22.9687 26.1408 23.4774 26.3516 24.0078 26.3516C24.5382 26.3516 25.047 26.1408 25.422 25.7658C25.7971 25.3907 26.0078 24.882 26.0078 24.3516Z" stroke="white" stroke-width="1.5" stroke-linecap="round" stroke-linejoin="round"/>
</svg>
