<svg width="19" height="19" viewBox="0 0 19 19" fill="none" xmlns="http://www.w3.org/2000/svg">
<path fill-rule="evenodd" clip-rule="evenodd" d="M18.2315 4.61434C18.6885 5.71734 18.6885 7.11434 18.6885 9.91034C18.6885 12.7063 18.6885 14.1043 18.2315 15.2063C17.6225 16.6764 16.4545 17.8444 14.9845 18.4533C13.8825 18.9103 12.4845 18.9103 9.68848 18.9103H6.68848C3.86048 18.9103 2.44548 18.9103 1.56748 18.0313C0.688477 17.1533 0.688477 15.7383 0.688477 12.9103V9.91034C0.688477 7.11434 0.688477 5.71734 1.14548 4.61434C1.75444 3.14427 2.92241 1.9763 4.39248 1.36734C5.49548 0.910339 6.89248 0.910339 9.68848 0.910339C12.4845 0.910339 13.8825 0.910339 14.9845 1.36734C16.4545 1.9763 17.6225 3.14427 18.2315 4.61434ZM5.68848 7.91034C5.68848 7.64512 5.79383 7.39077 5.98137 7.20323C6.16891 7.0157 6.42326 6.91034 6.68848 6.91034H12.6885C12.9537 6.91034 13.208 7.0157 13.3956 7.20323C13.5831 7.39077 13.6885 7.64512 13.6885 7.91034C13.6885 8.17556 13.5831 8.42991 13.3956 8.61745C13.208 8.80498 12.9537 8.91034 12.6885 8.91034H6.68848C6.42326 8.91034 6.16891 8.80498 5.98137 8.61745C5.79383 8.42991 5.68848 8.17556 5.68848 7.91034ZM5.68848 11.9103C5.68848 11.6451 5.79383 11.3908 5.98137 11.2032C6.16891 11.0157 6.42326 10.9103 6.68848 10.9103H9.68848C9.95369 10.9103 10.208 11.0157 10.3956 11.2032C10.5831 11.3908 10.6885 11.6451 10.6885 11.9103C10.6885 12.1756 10.5831 12.4299 10.3956 12.6174C10.208 12.805 9.95369 12.9103 9.68848 12.9103H6.68848C6.42326 12.9103 6.16891 12.805 5.98137 12.6174C5.79383 12.4299 5.68848 12.1756 5.68848 11.9103Z" fill="black"/>
<path fill-rule="evenodd" clip-rule="evenodd" d="M18.2315 4.61434C18.6885 5.71734 18.6885 7.11434 18.6885 9.91034C18.6885 12.7063 18.6885 14.1043 18.2315 15.2063C17.6225 16.6764 16.4545 17.8444 14.9845 18.4533C13.8825 18.9103 12.4845 18.9103 9.68848 18.9103H6.68848C3.86048 18.9103 2.44548 18.9103 1.56748 18.0313C0.688477 17.1533 0.688477 15.7383 0.688477 12.9103V9.91034C0.688477 7.11434 0.688477 5.71734 1.14548 4.61434C1.75444 3.14427 2.92241 1.9763 4.39248 1.36734C5.49548 0.910339 6.89248 0.910339 9.68848 0.910339C12.4845 0.910339 13.8825 0.910339 14.9845 1.36734C16.4545 1.9763 17.6225 3.14427 18.2315 4.61434ZM5.68848 7.91034C5.68848 7.64512 5.79383 7.39077 5.98137 7.20323C6.16891 7.0157 6.42326 6.91034 6.68848 6.91034H12.6885C12.9537 6.91034 13.208 7.0157 13.3956 7.20323C13.5831 7.39077 13.6885 7.64512 13.6885 7.91034C13.6885 8.17556 13.5831 8.42991 13.3956 8.61745C13.208 8.80498 12.9537 8.91034 12.6885 8.91034H6.68848C6.42326 8.91034 6.16891 8.80498 5.98137 8.61745C5.79383 8.42991 5.68848 8.17556 5.68848 7.91034ZM5.68848 11.9103C5.68848 11.6451 5.79383 11.3908 5.98137 11.2032C6.16891 11.0157 6.42326 10.9103 6.68848 10.9103H9.68848C9.95369 10.9103 10.208 11.0157 10.3956 11.2032C10.5831 11.3908 10.6885 11.6451 10.6885 11.9103C10.6885 12.1756 10.5831 12.4299 10.3956 12.6174C10.208 12.805 9.95369 12.9103 9.68848 12.9103H6.68848C6.42326 12.9103 6.16891 12.805 5.98137 12.6174C5.79383 12.4299 5.68848 12.1756 5.68848 11.9103Z" fill="white"/>
</svg>
