<svg width="41" height="43" viewBox="0 0 41 43" fill="none" xmlns="http://www.w3.org/2000/svg">
<rect x="0.821777" y="0.746338" width="40.0192" height="41.6282" rx="20.0096" fill="#FF75BE"/>
<path d="M26.5414 15.8668C26.5414 15.5936 26.4328 15.3316 26.2397 15.1385C26.0465 14.9453 25.7845 14.8368 25.5114 14.8367L17.2695 14.8367C17.1328 14.8344 16.9969 14.8593 16.8698 14.91C16.7428 14.9606 16.6271 15.0361 16.5295 15.132C16.432 15.2279 16.3545 15.3423 16.3016 15.4684C16.2487 15.5946 16.2214 15.73 16.2214 15.8668C16.2214 16.0036 16.2487 16.139 16.3016 16.2652C16.3545 16.3913 16.432 16.5057 16.5295 16.6016C16.6271 16.6974 16.7428 16.7729 16.8698 16.8236C16.9969 16.8743 17.1328 16.8992 17.2695 16.8968L23.0244 16.8968L13.3774 26.5439C13.1842 26.7371 13.0756 26.9991 13.0756 27.2723C13.0756 27.5456 13.1842 27.8076 13.3774 28.0008C13.5706 28.194 13.8326 28.3026 14.1058 28.3026C14.379 28.3026 14.6411 28.194 14.8343 28.0008L24.4813 18.3538L24.4813 24.1086C24.486 24.3787 24.5966 24.6362 24.7893 24.8255C24.9819 25.0148 25.2412 25.1209 25.5114 25.1209C25.7815 25.1209 26.0408 25.0148 26.2335 24.8255C26.4261 24.6362 26.5367 24.3787 26.5414 24.1086L26.5414 15.8668Z" fill="white"/>
</svg>
