<svg width="71" height="52" viewBox="0 0 71 52" fill="none" xmlns="http://www.w3.org/2000/svg">
<circle cx="20.2144" cy="31.9243" r="19.3247" fill="#F9F9F9"/>
<circle cx="51.1343" cy="31.9243" r="19.3247" fill="#F9F9F9"/>
<path d="M10.4701 31.6507C10.1834 30.2172 10.04 28.6643 10.04 26.9919C10.04 23.7904 10.5895 20.4456 11.6886 16.9574C12.7876 13.4693 14.5316 10.2678 16.9208 7.35303C19.3099 4.39048 22.4636 2.21635 26.3818 0.830644C26.7641 0.639511 27.1942 0.543945 27.672 0.543945C28.102 0.543945 28.5082 0.687294 28.8905 0.973993C29.2727 1.26069 29.4638 1.85798 29.4638 2.76586V6.70796C27.1703 8.09367 25.0917 10.1483 23.2282 12.872C21.4124 15.5956 20.5045 18.5343 20.5045 21.6879C20.6001 21.5924 20.8868 21.5446 21.3646 21.5446C24.4705 21.5446 26.9791 22.5241 28.8905 24.4833C30.8018 26.3946 31.7574 28.7837 31.7574 31.6507C31.7574 34.3743 30.8018 36.6918 28.8905 38.6031C26.9791 40.5145 24.4705 41.4701 21.3646 41.4701C18.2109 41.4701 15.7262 40.5145 13.9105 38.6031C12.1425 36.6918 10.9957 34.3743 10.4701 31.6507ZM40.4301 31.6507C40.1434 30.2172 40 28.6643 40 26.9919C40 23.7904 40.5495 20.4456 41.6485 16.9574C42.7475 13.4693 44.4916 10.2678 46.8808 7.35303C49.2699 4.39048 52.3997 2.21635 56.2701 0.830644C56.748 0.639511 57.2019 0.543945 57.632 0.543945C58.062 0.543945 58.4443 0.687294 58.7787 0.973993C59.161 1.26069 59.3521 1.85798 59.3521 2.76586V6.70796C57.1063 8.09367 55.0517 10.1483 53.1881 12.872C51.3724 15.5956 50.4645 18.5343 50.4645 21.6879C50.5601 21.5924 50.8468 21.5446 51.3246 21.5446C54.4305 21.5446 56.9391 22.5241 58.8504 24.4833C60.7617 26.3946 61.7174 28.7837 61.7174 31.6507C61.7174 34.3743 60.7617 36.6918 58.8504 38.6031C56.9391 40.5145 54.4305 41.4701 51.3246 41.4701C48.1709 41.4701 45.6862 40.5145 43.8704 38.6031C42.1025 36.6918 40.9557 34.3743 40.4301 31.6507Z" fill="#5D4E64"/>
</svg>
