<svg width="22" height="22" viewBox="0 0 22 22" fill="none" xmlns="http://www.w3.org/2000/svg">
<path d="M10.5502 1.54736C15.9547 1.54736 20.3274 5.92009 20.3274 11.3164C20.3274 16.7127 15.9547 21.0936 10.5502 21.0936C5.14568 21.0936 0.772949 16.7209 0.772949 11.3246C0.772949 5.92828 5.14568 1.54736 10.5502 1.54736Z" fill="#E74D89"/>
<path d="M10.5503 21.7894C4.76912 21.7894 0.0688477 17.0973 0.0688477 11.3243C0.0688477 5.54316 4.76912 0.851074 10.5503 0.851074C16.3315 0.851074 21.0317 5.54316 21.0317 11.3161C21.0317 17.0891 16.3315 21.7894 10.5503 21.7894ZM19.3858 12.7492C19.0829 12.6509 16.6181 11.9221 13.8094 12.3643C14.9803 15.5742 15.4553 18.1946 15.5454 18.735C17.5598 17.3839 18.9928 15.2385 19.3858 12.7492ZM14.0468 19.5621C13.9158 18.776 13.3918 16.041 12.1389 12.7819C12.1225 12.7901 12.0979 12.7983 12.0816 12.7983C7.02919 14.5588 5.2195 18.0554 5.05573 18.3829C6.57062 19.5621 8.47857 20.2663 10.5503 20.2663C11.7868 20.2745 12.9741 20.0207 14.0468 19.5621ZM3.90113 17.3102C4.10584 16.9663 6.56243 12.9047 11.1808 11.4062C11.2955 11.3653 11.4183 11.3325 11.5329 11.2998C11.3118 10.7921 11.0662 10.2844 10.8041 9.78487C6.33315 11.1196 1.99318 11.0623 1.60012 11.0541C1.60012 11.1442 1.59193 11.2343 1.59193 11.3243C1.60012 13.6253 2.46812 15.7216 3.90113 17.3102ZM1.78846 9.49827C2.1897 9.50646 5.87459 9.52284 10.0672 8.40918C8.58503 5.77244 6.98005 3.56151 6.75077 3.24216C4.23686 4.42132 2.36985 6.73051 1.78846 9.49827ZM8.45401 2.6362C8.69967 2.96374 10.3292 5.17467 11.795 7.86873C14.9803 6.67319 16.3233 4.87169 16.4871 4.64241C14.9067 3.24215 12.8267 2.39054 10.5503 2.39054C9.8297 2.39054 9.12548 2.48061 8.45401 2.6362ZM17.4779 5.67418C17.2895 5.92803 15.791 7.85236 12.4828 9.20348C12.6875 9.62929 12.8922 10.0633 13.0806 10.4973C13.1461 10.6529 13.2116 10.8085 13.2771 10.9558C16.2578 10.5792 19.2139 11.1851 19.5087 11.2424C19.4841 9.13797 18.7307 7.19726 17.4779 5.67418Z" fill="#B2215A"/>
</svg>
