<svg width="21" height="22" viewBox="0 0 21 22" fill="none" xmlns="http://www.w3.org/2000/svg">
<path d="M18.4835 0.851074H2.48388C1.11962 0.851074 0.0136719 1.95702 0.0136719 3.32128V19.3192C0.0136719 20.6835 1.11962 21.7894 2.48388 21.7894H18.4835C19.8477 21.7894 20.9537 20.6835 20.9537 19.3192V3.32128C20.9537 1.95702 19.8477 0.851074 18.4835 0.851074Z" fill="url(#paint0_linear_1_5636)"/>
<path d="M8.55746 10.691C8.55746 10.691 10.3352 10.559 10.3352 8.47477C10.3352 6.39059 8.88084 5.37305 7.03877 5.37305H0.977539V17.0214H7.03877C7.03877 17.0214 10.7382 17.1383 10.7382 13.5828C10.7382 13.5828 10.9007 10.691 8.55746 10.691ZM3.64753 7.44368H7.03369C7.03369 7.44368 7.85822 7.44368 7.85822 8.65593C7.85822 9.86818 7.374 10.0443 6.82375 10.0443H3.64922L3.64753 7.44368ZM6.88131 14.9508H3.64922V11.8389H7.03538C7.03538 11.8389 8.26287 11.822 8.26287 13.4389C8.26625 14.7849 7.36892 14.9373 6.88301 14.9508H6.88131ZM15.6735 8.33763C11.1936 8.33763 11.1987 12.8124 11.1987 12.8124C11.1987 12.8124 10.8905 17.2652 15.6735 17.2652C15.6735 17.2652 19.659 17.4921 19.659 14.1686H17.6104C17.6104 14.1686 17.6781 15.4215 15.748 15.4215C15.748 15.4215 13.6977 15.5586 13.6977 13.3898H19.7335C19.7335 13.3898 20.3887 8.33763 15.6735 8.33763ZM17.4952 11.8389H13.6689C13.6689 11.8389 13.9195 10.0443 15.7192 10.0443C17.5189 10.0443 17.4952 11.8389 17.4952 11.8389ZM13.1677 6.06044H17.9727V7.49448H13.1677V6.06044Z" fill="white"/>
<defs>
<linearGradient id="paint0_linear_1_5636" x1="10.4837" y1="0.851074" x2="10.4837" y2="21.7911" gradientUnits="userSpaceOnUse">
<stop stop-color="#005CFF"/>
<stop offset="1" stop-color="#0047AD"/>
</linearGradient>
</defs>
</svg>
