<svg width="22" height="22" viewBox="0 0 22 22" fill="none" xmlns="http://www.w3.org/2000/svg">
<path d="M20.3527 0.851154H2.50362C2.09863 0.847032 1.70855 1.00374 1.41897 1.28688C1.12939 1.57003 0.963963 1.95649 0.958984 2.36146V20.2826C0.964864 20.687 1.13069 21.0726 1.42017 21.355C1.70965 21.6374 2.09922 21.7936 2.50362 21.7895H20.3527C20.7577 21.7927 21.1475 21.6355 21.4369 21.3521C21.7264 21.0688 21.8919 20.6825 21.8973 20.2775V2.35631C21.8901 1.95252 21.7238 1.56791 21.4346 1.28606C21.1453 1.00422 20.7565 0.847923 20.3527 0.851154Z" fill="#0076B2"/>
<path d="M4.05769 8.6998H7.16583V18.7004H4.05769V8.6998ZM5.61262 3.72266C5.96911 3.72266 6.31759 3.82839 6.61397 4.02648C6.91036 4.22457 7.14133 4.50612 7.27768 4.8355C7.41402 5.16489 7.44961 5.52731 7.37993 5.87692C7.31026 6.22654 7.13846 6.54763 6.88626 6.79959C6.63407 7.05154 6.31281 7.22304 5.96313 7.29238C5.61345 7.36172 5.25106 7.32579 4.92181 7.18913C4.59255 7.05247 4.31122 6.82123 4.11342 6.52465C3.91561 6.22808 3.81021 5.8795 3.81055 5.52301C3.811 5.04537 4.00106 4.58745 4.33897 4.24986C4.67687 3.91228 5.13498 3.72266 5.61262 3.72266ZM9.1155 8.6998H12.0949V10.0728H12.1361C12.5514 9.28676 13.564 8.45781 15.0761 8.45781C18.2237 8.45094 18.8072 10.5225 18.8072 13.2084V18.7004H15.6991V13.8348C15.6991 12.6764 15.6785 11.1849 14.0841 11.1849C12.4897 11.1849 12.2185 12.4481 12.2185 13.7593V18.7004H9.1155V8.6998Z" fill="white"/>
</svg>
