<svg width="22" height="22" viewBox="0 0 22 22" fill="none" xmlns="http://www.w3.org/2000/svg">
<path d="M16.1537 0.851074H5.03022C2.31993 0.851074 0.122803 3.0482 0.122803 5.7585V16.882C0.122803 19.5923 2.31993 21.7894 5.03022 21.7894H16.1537C18.864 21.7894 21.0611 19.5923 21.0611 16.882V5.7585C21.0611 3.0482 18.864 0.851074 16.1537 0.851074Z" fill="url(#paint0_radial_1_5642)"/>
<path d="M16.1537 0.851074H5.03022C2.31993 0.851074 0.122803 3.0482 0.122803 5.7585V16.882C0.122803 19.5923 2.31993 21.7894 5.03022 21.7894H16.1537C18.864 21.7894 21.0611 19.5923 21.0611 16.882V5.7585C21.0611 3.0482 18.864 0.851074 16.1537 0.851074Z" fill="url(#paint1_radial_1_5642)"/>
<path d="M10.5929 3.14111C8.3716 3.14111 8.09277 3.15085 7.2204 3.19051C6.34966 3.23043 5.75529 3.36825 5.23526 3.57051C4.69725 3.77941 4.24094 4.05888 3.78635 4.51364C3.33135 4.96831 3.05187 5.42462 2.84232 5.96239C2.63948 6.48258 2.5015 7.07719 2.46232 7.94752C2.42331 8.81998 2.41309 9.09889 2.41309 11.3202C2.41309 13.5416 2.4229 13.8195 2.46249 14.6919C2.50256 15.5626 2.64038 16.157 2.84249 16.677C3.05154 17.215 3.33102 17.6713 3.78577 18.1259C4.24028 18.5809 4.69659 18.8611 5.2342 19.07C5.75463 19.2722 6.34908 19.41 7.21966 19.4499C8.09212 19.4896 8.3707 19.4993 10.5919 19.4993C12.8134 19.4993 13.0913 19.4896 13.9637 19.4499C14.8344 19.41 15.4294 19.2722 15.9499 19.07C16.4877 18.8611 16.9433 18.5809 17.3977 18.1259C17.8527 17.6713 18.1321 17.215 18.3418 16.6773C18.5428 16.157 18.6809 15.5625 18.7218 14.692C18.7609 13.8197 18.7712 13.5416 18.7712 11.3202C18.7712 9.09889 18.7609 8.82015 18.7218 7.94769C18.6809 7.07695 18.5428 6.48266 18.3418 5.96264C18.1321 5.42462 17.8527 4.96831 17.3977 4.51364C16.9428 4.05872 16.4878 3.77924 15.9494 3.57059C15.428 3.36825 14.8333 3.23035 13.9625 3.19051C13.0901 3.15085 12.8123 3.14111 10.5903 3.14111H10.5929ZM9.85912 4.61506C10.0769 4.61473 10.3199 4.61506 10.5929 4.61506C12.7767 4.61506 13.0355 4.62291 13.8979 4.66209C14.6954 4.69857 15.1282 4.8318 15.4165 4.94377C15.7982 5.09198 16.0704 5.26922 16.3565 5.55556C16.6427 5.84183 16.8199 6.11444 16.9685 6.49615C17.0805 6.78406 17.2139 7.21689 17.2502 8.01435C17.2894 8.87658 17.2979 9.13553 17.2979 11.3183C17.2979 13.5012 17.2894 13.7602 17.2502 14.6224C17.2137 15.4198 17.0805 15.8526 16.9685 16.1406C16.8203 16.5223 16.6427 16.7941 16.3565 17.0802C16.0702 17.3665 15.7984 17.5437 15.4165 17.6919C15.1285 17.8044 14.6954 17.9373 13.8979 17.9738C13.0357 18.013 12.7767 18.0215 10.5929 18.0215C8.40889 18.0215 8.15002 18.013 7.28787 17.9738C6.49042 17.937 6.05758 17.8038 5.76903 17.6918C5.38739 17.5435 5.1147 17.3663 4.82844 17.0801C4.54217 16.7938 4.36501 16.5219 4.2164 16.14C4.10443 15.852 3.97103 15.4192 3.93471 14.6217C3.89554 13.7595 3.88768 13.5005 3.88768 11.3163C3.88768 9.13218 3.89554 8.87454 3.93471 8.0123C3.97119 7.21485 4.10443 6.78201 4.2164 6.4937C4.36469 6.11198 4.54217 5.83938 4.82852 5.55311C5.11479 5.26684 5.38739 5.08961 5.76911 4.94107C6.05742 4.82861 6.49042 4.6957 7.28787 4.65906C8.04239 4.62495 8.33479 4.61473 9.85912 4.61301V4.61506ZM14.9588 5.9731C14.417 5.9731 13.9773 6.41232 13.9773 6.95426C13.9773 7.49612 14.417 7.93575 14.9588 7.93575C15.5007 7.93575 15.9403 7.49612 15.9403 6.95426C15.9403 6.4124 15.5007 5.97278 14.9588 5.97278V5.9731ZM10.5929 7.11989C8.27328 7.11989 6.3926 9.00058 6.3926 11.3202C6.3926 13.6399 8.27328 15.5197 10.5929 15.5197C12.9125 15.5197 14.7925 13.6399 14.7925 11.3202C14.7925 9.00066 12.9124 7.11989 10.5927 7.11989H10.5929ZM10.5929 8.59383C12.0985 8.59383 13.3193 9.81439 13.3193 11.3202C13.3193 12.8259 12.0985 14.0466 10.5929 14.0466C9.0871 14.0466 7.86654 12.8259 7.86654 11.3202C7.86654 9.81439 9.0871 8.59383 10.5929 8.59383Z" fill="white"/>
<defs>
<radialGradient id="paint0_radial_1_5642" cx="0" cy="0" r="1" gradientUnits="userSpaceOnUse" gradientTransform="translate(5.68455 23.4021) rotate(-90) scale(20.7514 19.3005)">
<stop stop-color="#FFDD55"/>
<stop offset="0.1" stop-color="#FFDD55"/>
<stop offset="0.5" stop-color="#FF543E"/>
<stop offset="1" stop-color="#C837AB"/>
</radialGradient>
<radialGradient id="paint1_radial_1_5642" cx="0" cy="0" r="1" gradientUnits="userSpaceOnUse" gradientTransform="translate(-3.38445 2.35937) rotate(78.681) scale(9.27601 38.236)">
<stop stop-color="#3771C8"/>
<stop offset="0.128" stop-color="#3771C8"/>
<stop offset="1" stop-color="#6600FF" stop-opacity="0"/>
</radialGradient>
</defs>
</svg>
