<svg width="18" height="18" viewBox="0 0 18 18" fill="none" xmlns="http://www.w3.org/2000/svg">
<path d="M9.77081 17.0137H4.63875C3.40177 17.0137 2.41779 16.4116 1.53469 15.5701C-0.274744 13.8463 2.69561 12.4693 3.82851 11.7951C5.37773 10.878 7.17791 10.4757 8.97018 10.6462M11.7724 4.60383C11.7724 5.07696 11.6792 5.54546 11.4981 5.98258C11.3171 6.4197 11.0517 6.81688 10.7171 7.15143C10.3826 7.48599 9.98541 7.75137 9.5483 7.93243C9.11118 8.11349 8.64268 8.20668 8.16954 8.20668C7.69641 8.20668 7.22791 8.11349 6.79079 7.93243C6.35367 7.75137 5.9565 7.48599 5.62194 7.15143C5.28738 6.81688 5.022 6.4197 4.84094 5.98258C4.65988 5.54546 4.56669 5.07696 4.56669 4.60383C4.56669 3.64829 4.94627 2.73189 5.62194 2.05623C6.29761 1.38056 7.21401 1.00098 8.16954 1.00098C9.12508 1.00098 10.0415 1.38056 10.7171 2.05623C11.3928 2.73189 11.7724 3.64829 11.7724 4.60383ZM11.3841 11.7191C12.2432 11.2067 12.9926 11.4132 13.4425 11.7415C13.6267 11.8768 13.7195 11.944 13.774 11.944C13.8284 11.944 13.9205 11.8768 14.1054 11.7415C14.5554 11.4132 15.3048 11.2067 16.1639 11.7191C17.2912 12.3916 17.5458 14.6086 14.9469 16.4788C14.4505 16.8351 14.2039 17.0137 13.774 17.0137C13.344 17.0137 13.0966 16.8351 12.6019 16.4788C10.0022 14.6086 10.2568 12.3908 11.3841 11.7191Z" stroke="#5D4E64" stroke-linecap="round" stroke-linejoin="round"/>
</svg>
