<svg width="17" height="17" viewBox="0 0 17 17" fill="none" xmlns="http://www.w3.org/2000/svg">
<path d="M0.963867 3.53418C0.963867 2.73853 1.27994 1.97547 1.84255 1.41286C2.40516 0.85025 3.16822 0.53418 3.96387 0.53418H11.9639C12.7595 0.53418 13.5226 0.85025 14.0852 1.41286C14.6478 1.97547 14.9639 2.73853 14.9639 3.53418V6.53718C14.6229 6.55318 14.2839 6.62918 13.9639 6.76618V3.53418C13.9639 3.00375 13.7532 2.49504 13.3781 2.11997C13.003 1.74489 12.4943 1.53418 11.9639 1.53418H3.96387C3.43343 1.53418 2.92473 1.74489 2.54965 2.11997C2.17458 2.49504 1.96387 3.00375 1.96387 3.53418V13.0342C1.96387 13.1668 1.91119 13.294 1.81742 13.3877C1.72365 13.4815 1.59648 13.5342 1.46387 13.5342C1.33126 13.5342 1.20408 13.4815 1.11031 13.3877C1.01655 13.294 0.963867 13.1668 0.963867 13.0342V3.53418ZM1.36387 14.5692C1.73287 14.7532 2.19387 14.9042 2.58087 14.8192C2.83187 14.7632 3.15787 14.6262 3.52387 14.4722C4.40887 14.0992 5.52687 13.6292 6.38587 13.9752C7.02287 14.2312 6.96987 14.9562 6.79087 15.3052C6.75587 15.3712 6.78287 15.4652 6.85587 15.4822C7.22159 15.5565 7.595 15.5861 7.96787 15.5702C7.97221 15.523 7.9799 15.4762 7.99087 15.4302L8.36587 13.9322C8.46273 13.5462 8.66249 13.1936 8.94387 12.9122L13.7739 8.08218C13.9471 7.90636 14.1533 7.76656 14.3808 7.67083C14.6083 7.57511 14.8524 7.52536 15.0992 7.52445C15.346 7.52354 15.5905 7.57149 15.8187 7.66554C16.0469 7.75958 16.2542 7.89786 16.4286 8.0724C16.6031 8.24694 16.7413 8.45429 16.8353 8.6825C16.9292 8.9107 16.9771 9.15525 16.9761 9.40204C16.9751 9.64882 16.9252 9.89297 16.8294 10.1204C16.7336 10.3478 16.5938 10.5541 16.4179 10.7272L11.5879 15.5562C11.3064 15.8376 10.9539 16.0373 10.5679 16.1342L9.34587 16.4392C8.22487 16.7672 6.55187 16.6612 6.03287 16.2562C5.58387 15.9062 5.56587 15.3692 5.71687 15.0122C5.75087 14.9322 5.69087 14.8292 5.60587 14.8422C5.11087 14.9122 4.70587 15.0922 4.30587 15.2692C3.72087 15.5292 3.14987 15.7822 2.32987 15.6802C1.61887 15.5922 1.22287 15.2212 1.00487 14.8552C0.882867 14.6512 1.15087 14.4632 1.36387 14.5692Z" fill="#5D4E64"/>
</svg>
