<svg width="17" height="16" viewBox="0 0 17 16" fill="none" xmlns="http://www.w3.org/2000/svg">
<path d="M14.7248 12.1956C15.0688 12.3676 15.3789 12.5787 15.6552 12.8289C15.9315 13.0791 16.166 13.358 16.3589 13.6655C16.5517 13.973 16.7029 14.3066 16.8124 14.6663C16.9218 15.026 16.9766 15.396 16.9766 15.7766H15.9758C15.9758 15.3648 15.8976 14.9764 15.7412 14.6116C15.5848 14.2467 15.3711 13.9287 15.1001 13.6577C14.829 13.3866 14.5085 13.1703 14.1384 13.0087C13.7683 12.8471 13.38 12.769 12.9734 12.7742C12.5564 12.7742 12.1681 12.8524 11.8084 13.0087C11.4487 13.1651 11.1308 13.3788 10.8545 13.6499C10.5783 13.9209 10.3619 14.2415 10.2056 14.6116C10.0492 14.9816 9.97101 15.37 9.97101 15.7766H8.97021C8.97021 15.396 9.02234 15.026 9.12659 14.6663C9.23084 14.3066 9.382 13.973 9.58007 13.6655C9.77815 13.358 10.0153 13.0791 10.2916 12.8289C10.5678 12.5787 10.878 12.3676 11.222 12.1956C10.8311 11.9141 10.5261 11.5623 10.3072 11.1401C10.0883 10.7179 9.97622 10.2618 9.97101 9.77179C9.97101 9.36 10.0492 8.97168 10.2056 8.6068C10.3619 8.24193 10.5757 7.92397 10.8467 7.65292C11.1178 7.38187 11.4357 7.16556 11.8006 7.00397C12.1655 6.84238 12.5564 6.7642 12.9734 6.76941C13.3852 6.76941 13.7735 6.8476 14.1384 7.00397C14.5032 7.16034 14.8212 7.37406 15.0923 7.6451C15.3633 7.91615 15.5796 8.23672 15.7412 8.6068C15.9028 8.97689 15.981 9.36522 15.9758 9.77179C15.9758 10.2618 15.8663 10.7179 15.6474 11.1401C15.4285 11.5623 15.1209 11.9141 14.7248 12.1956ZM12.9734 11.7734C13.2496 11.7734 13.5077 11.7213 13.7474 11.617C13.9872 11.5128 14.2009 11.3694 14.3886 11.187C14.5762 11.0045 14.7196 10.7934 14.8186 10.5537C14.9176 10.3139 14.9698 10.0533 14.975 9.77179C14.975 9.49553 14.9229 9.23751 14.8186 8.99774C14.7144 8.75797 14.571 8.54425 14.3886 8.35661C14.2061 8.16896 13.995 8.02561 13.7553 7.92658C13.5155 7.82754 13.2549 7.77541 12.9734 7.7702C12.6971 7.7702 12.4391 7.82233 12.1993 7.92658C11.9596 8.03083 11.7459 8.17417 11.5582 8.35661C11.3706 8.53904 11.2272 8.75015 11.1282 8.98992C11.0291 9.22969 10.977 9.49032 10.9718 9.77179C10.9718 10.048 11.0239 10.3061 11.1282 10.5458C11.2324 10.7856 11.3758 10.9993 11.5582 11.187C11.7406 11.3746 11.9517 11.518 12.1915 11.617C12.4313 11.716 12.6919 11.7682 12.9734 11.7734ZM8.97021 12.3989C8.80342 12.5917 8.65225 12.7924 8.51673 13.0009C8.38121 13.2094 8.26132 13.4335 8.15707 13.6733C7.88081 13.3866 7.54721 13.1651 7.15628 13.0087C6.76534 12.8524 6.36919 12.7742 5.96783 12.7742H2.96545V2.76624H1.96466V13.775H8.11798C8.045 13.9366 7.98506 14.1007 7.93815 14.2675C7.89123 14.4343 7.85214 14.6037 7.82087 14.7758H0.963867V1.76544H2.96545V0.764648H5.96783C6.42653 0.764648 6.86698 0.835017 7.28919 0.975753C7.7114 1.11649 8.10495 1.32759 8.46982 1.60907C8.82948 1.32759 9.22041 1.11649 9.64262 0.975753C10.0648 0.835017 10.5079 0.764648 10.9718 0.764648H13.9742V1.76544H15.9758V6.76941C15.6734 6.4723 15.3398 6.22471 14.975 6.02663V2.76624H13.9742V5.65134C13.8074 5.60442 13.6406 5.57054 13.4738 5.54969C13.307 5.52884 13.1402 5.51842 12.9734 5.51842V1.76544H10.9718C10.6069 1.76544 10.2525 1.82799 9.90846 1.95309C9.56444 2.07819 9.25169 2.26323 8.97021 2.50822V12.3989ZM7.96942 12.2972V2.50822C7.68795 2.26844 7.3752 2.08601 7.03118 1.96091C6.68715 1.83581 6.33271 1.77065 5.96783 1.76544H3.96625V11.7734H5.96783C6.31707 11.7734 6.66109 11.8177 6.9999 11.9063C7.33871 11.9949 7.66189 12.1252 7.96942 12.2972Z" fill="#5D4E64"/>
</svg>
