<svg width="18" height="18" viewBox="0 0 18 18" fill="none" xmlns="http://www.w3.org/2000/svg">
<path d="M4.34641 0.629639C3.24727 0.738372 2.50721 0.982812 1.95427 1.53659C0.963867 2.52868 0.963867 4.12597 0.963867 7.32138V10.7098C0.963867 13.9044 0.963867 15.5025 1.95427 16.4955C2.94467 17.4884 4.53943 17.4875 7.7281 17.4875H9.41979C12.6085 17.4875 14.2032 17.4875 15.1936 16.4955C16.093 15.5936 16.1764 14.2053 16.184 11.5679" stroke="#5D4E64" stroke-linecap="round" stroke-linejoin="round"/>
<path d="M7.72831 4.84427L8.57373 7.7944C9.04575 8.73001 9.63831 8.97445 11.1108 9.05874C12.2816 9.03008 12.961 8.89185 13.5409 8.3878C13.9362 8.0439 14.1149 7.52551 14.2017 7.00966L14.4917 5.26571M16.6057 3.57992V7.7944M6.10573 3.102C7.44341 1.99191 8.63526 1.39598 11.1075 0.740209C11.3864 0.666575 11.6798 0.668029 11.958 0.744423C14.1461 1.34625 15.3278 1.88065 16.9108 3.06913C16.9782 3.1197 16.9985 3.21411 16.9513 3.28407C16.4346 4.04436 15.2806 4.66051 12.4502 5.75796C11.8607 5.98481 11.2073 5.9812 10.6203 5.74785C7.60609 4.55094 6.22037 3.91034 6.05179 3.24529C6.04631 3.21875 6.04847 3.1912 6.05802 3.16584C6.06757 3.14047 6.08411 3.11834 6.10573 3.102Z" stroke="#5D4E64" stroke-linecap="round" stroke-linejoin="round"/>
</svg>
