<svg width="18" height="18" viewBox="0 0 18 18" fill="none" xmlns="http://www.w3.org/2000/svg">
<path d="M16.9766 13.7693V15.5484C16.9766 16.0203 16.7891 16.4729 16.4555 16.8065C16.1218 17.1402 15.6692 17.3276 15.1974 17.3276H2.74306C2.27119 17.3276 1.81864 17.1402 1.48498 16.8065C1.15132 16.4729 0.963867 16.0203 0.963867 15.5484V13.7693M16.9766 4.87332V3.09413C16.9766 2.62226 16.7891 2.16972 16.4555 1.83605C16.1218 1.50239 15.6692 1.31494 15.1974 1.31494H2.74306C2.27119 1.31494 1.81864 1.50239 1.48498 1.83605C1.15132 2.16972 0.963867 2.62226 0.963867 3.09413V4.87332" stroke="#5D4E64" stroke-linecap="round" stroke-linejoin="round"/>
<path d="M8.97065 10.2108C9.46196 10.2108 9.86024 9.81254 9.86024 9.32123C9.86024 8.82993 9.46196 8.43164 8.97065 8.43164C8.47934 8.43164 8.08105 8.82993 8.08105 9.32123C8.08105 9.81254 8.47934 10.2108 8.97065 10.2108Z" stroke="#5D4E64" stroke-linecap="round" stroke-linejoin="round"/>
<path d="M15.1477 9.6148C15.2141 9.42473 15.2141 9.21773 15.1477 9.02766C14.6468 7.8004 13.7918 6.75014 12.6916 6.01084C11.5914 5.27154 10.2959 4.87671 8.97034 4.87671C7.64481 4.87671 6.34933 5.27154 5.24912 6.01084C4.14891 6.75014 3.29385 7.8004 2.793 9.02766C2.72655 9.21773 2.72655 9.42473 2.793 9.6148C3.29385 10.8421 4.14891 11.8923 5.24912 12.6316C6.34933 13.3709 7.64481 13.7658 8.97034 13.7658C10.2959 13.7658 11.5914 13.3709 12.6916 12.6316C13.7918 11.8923 14.6468 10.8421 15.1477 9.6148Z" stroke="#5D4E64" stroke-linecap="round" stroke-linejoin="round"/>
</svg>
