<svg width="18" height="19" viewBox="0 0 18 19" fill="none" xmlns="http://www.w3.org/2000/svg">
<path d="M13.5572 10.015C13.3091 12.081 11.9559 12.9066 11.3715 13.5058C10.7862 14.1069 10.891 14.2265 10.9304 15.108C10.9369 15.217 10.9211 15.3263 10.8838 15.429C10.8465 15.5317 10.7886 15.6257 10.7137 15.7051C10.6387 15.7846 10.5483 15.8479 10.4479 15.8911C10.3475 15.9343 10.2394 15.9564 10.1302 15.9562H7.80817C7.69899 15.956 7.59099 15.9336 7.49077 15.8903C7.39055 15.847 7.3002 15.7837 7.22523 15.7044C7.15027 15.625 7.09227 15.5312 7.05476 15.4286C7.01726 15.3261 7.00104 15.217 7.00709 15.108C7.00709 14.2431 7.08746 14.0422 6.5668 13.5058C5.90288 12.8419 4.34091 11.9045 4.34091 9.3266C4.33692 8.68626 4.46563 8.05204 4.71892 7.46392C4.97221 6.87579 5.34459 6.34651 5.81259 5.90945C6.28059 5.47238 6.83406 5.137 7.4381 4.92446C8.04215 4.71191 8.68368 4.6268 9.32225 4.6745C9.96082 4.7222 10.5826 4.90166 11.1484 5.20158C11.7141 5.50151 12.2116 5.91538 12.6095 6.41712C13.0074 6.91886 13.297 7.49759 13.4601 8.11681C13.6232 8.73604 13.6563 9.38235 13.5572 10.015Z" stroke="#5D4E64" stroke-linecap="round" stroke-linejoin="round"/>
<path d="M7.62397 15.9082V17.229C7.62397 17.5898 7.82489 17.886 8.07212 17.886H9.86559C10.1146 17.886 10.3146 17.5889 10.3146 17.229V15.9082M8.28789 6.7006C7.77207 6.70083 7.27746 6.9059 6.9128 7.27072C6.54814 7.63554 6.3433 8.13025 6.3433 8.64607M15.3744 9.50306H16.9766M13.7618 4.25107L14.8983 3.11454M14.6354 13.9548L15.7719 15.0905M8.96929 1.18042V2.47595M3.06386 3.11366L4.19253 4.25107M2.19028 15.0905L3.31895 13.9548M2.56417 9.50306H0.962891" stroke="#5D4E64" stroke-linecap="round" stroke-linejoin="round"/>
</svg>
