<svg width="18" height="17" viewBox="0 0 18 17" fill="none" xmlns="http://www.w3.org/2000/svg">
<path d="M8.17518 16.402H7.05269C4.18242 16.402 2.74768 16.402 1.85577 15.4933C0.963867 14.5846 0.963867 13.1218 0.963867 10.1971C0.963867 7.27239 0.963867 5.80963 1.85577 4.90091C2.74768 3.99219 4.18242 3.99219 7.05269 3.99219H10.0975C12.9678 3.99219 14.4033 3.99219 15.2952 4.90091C15.9814 5.59986 16.1391 6.62708 16.1759 8.39568V9.59663" stroke="#5D4E64" stroke-linecap="round" stroke-linejoin="round"/>
<path d="M14.5744 14.0001H12.1725M12.1725 16.402C11.5355 16.402 10.9246 16.1489 10.4741 15.6985C10.0237 15.2481 9.77061 14.6371 9.77061 14.0001C9.77061 13.3631 10.0237 12.7521 10.4741 12.3017C10.9246 11.8513 11.5355 11.5982 12.1725 11.5982M14.5744 16.402C15.2114 16.402 15.8224 16.1489 16.2728 15.6985C16.7233 15.2481 16.9763 14.6371 16.9763 14.0001C16.9763 13.3631 16.7233 12.7521 16.2728 12.3017C15.8224 11.8513 15.2114 11.5982 14.5744 11.5982M12.1725 3.99216L12.0924 3.74397C11.6961 2.51099 11.4984 1.8945 11.0268 1.54222C10.5544 1.18994 9.92833 1.18994 8.67454 1.18994H8.46397C7.21098 1.18994 6.58408 1.18994 6.1125 1.54222C5.64013 1.8945 5.44237 2.51099 5.04606 3.74397L4.9668 3.99216" stroke="#5D4E64" stroke-linecap="round" stroke-linejoin="round"/>
</svg>
