<svg width="65" height="17" viewBox="0 0 65 17" fill="none" xmlns="http://www.w3.org/2000/svg">
<path d="M26.1468 9.93778L29.6783 14.2807H26.8896L23.7468 10.2922V14.2807H21.461V2.85216H23.7468V9.57216L26.6496 6.28066H29.5639L26.1468 9.93778ZM17.0039 6.05216C16.5034 6.05968 16.0123 6.18837 15.5724 6.4272C15.1326 6.66604 14.7571 7.0079 14.4783 7.42353V6.28066H12.3183V14.2807H14.6039V10.5435C14.5739 10.2723 14.6001 9.99776 14.6807 9.73705C14.7614 9.47634 14.8949 9.23503 15.0728 9.02812C15.2508 8.82122 15.4694 8.65316 15.7151 8.53439C15.9608 8.41563 16.2283 8.3487 16.501 8.33778C17.8268 8.33778 18.0325 9.64066 18.0325 10.5435V14.2807H20.3183V10.0407C20.3183 7.52641 19.4839 6.05216 17.0496 6.05216H17.0039ZM37.461 10.4635C37.4698 10.6311 37.4698 10.7987 37.461 10.9664H31.461V11.0464C31.5584 11.523 31.8225 11.9493 32.2058 12.2488C32.5891 12.5483 33.0665 12.7014 33.5525 12.6807C33.9381 12.6974 34.323 12.6362 34.6843 12.5007C35.0457 12.3653 35.3759 12.1583 35.6554 11.8922L37.1754 13.035C36.6937 13.5267 36.1142 13.9119 35.4745 14.1658C34.8347 14.4198 34.1488 14.5368 33.461 14.5093C32.8915 14.5453 32.3208 14.4586 31.7876 14.2551C31.2544 14.0517 30.7711 13.7362 30.3702 13.3299C29.9694 12.9237 29.6604 12.4361 29.4642 11.9002C29.2679 11.3643 29.1889 10.7926 29.2325 10.2235C29.2208 9.66179 29.3249 9.10365 29.5384 8.5839C29.7518 8.06416 30.07 7.59395 30.4732 7.20259C30.8764 6.81123 31.3558 6.50711 31.8817 6.30918C32.4075 6.11125 32.9685 6.02376 33.5296 6.05216C35.6783 6.05216 37.461 7.57216 37.461 10.4635ZM35.3354 9.48066C35.327 9.25429 35.2726 9.03201 35.1755 8.82735C35.0784 8.6227 34.9406 8.43995 34.7706 8.29026C34.6006 8.14056 34.4019 8.02705 34.1866 7.95663C33.9713 7.88621 33.7439 7.86036 33.5183 7.88066C32.5133 7.77203 31.6031 8.47991 31.461 9.48066H35.3354ZM3.1754 2.85216H0.889648V14.2807H7.74677V11.9952H3.1754V2.85216ZM44.3183 2.85216H46.6039V14.2807H44.4439V13.4807C44.1696 13.8186 43.82 14.0876 43.4232 14.2662C43.0263 14.4448 42.5931 14.5281 42.1583 14.5093C41.627 14.4956 41.1042 14.3735 40.6219 14.1504C40.1396 13.9272 39.7081 13.6078 39.3538 13.2118C38.9995 12.8157 38.7299 12.3514 38.5617 11.8473C38.3934 11.3433 38.33 10.8101 38.3754 10.2807C38.3214 9.75045 38.3784 9.21481 38.5428 8.70782C38.7071 8.20084 38.9752 7.73362 39.3299 7.33588C39.6846 6.93814 40.1183 6.6186 40.6032 6.39759C41.0882 6.17658 41.6139 6.05894 42.1468 6.05216C42.5437 6.03474 42.9401 6.0965 43.313 6.23385C43.6858 6.3712 44.0275 6.58139 44.3183 6.85216V2.85216ZM44.4896 10.2807C44.5256 10.0168 44.5045 9.74821 44.4279 9.49314C44.3512 9.23807 44.2208 9.00241 44.0453 8.80203C43.8698 8.60166 43.6535 8.44124 43.4107 8.33159C43.168 8.22194 42.9046 8.16561 42.6383 8.16641C41.5449 8.24578 40.7164 9.18603 40.7754 10.2807C40.7164 11.3753 41.5449 12.3157 42.6383 12.395C42.9046 12.3958 43.168 12.3395 43.4108 12.2298C43.6535 12.1202 43.8699 11.9598 44.0454 11.7594C44.2208 11.559 44.3513 11.3233 44.4279 11.0682C44.5046 10.8131 44.5256 10.5446 44.4896 10.2807ZM10.0325 2.62353C9.66496 2.62871 9.31305 2.77319 9.04788 3.02778C8.78271 3.28237 8.62403 3.6281 8.6039 3.99516C8.6039 4.78403 9.24352 5.42366 10.0325 5.42366C10.8215 5.42366 11.4609 4.78391 11.4609 3.99516C11.4407 3.62815 11.2821 3.28246 11.0169 3.0279C10.7518 2.77334 10.3999 2.62886 10.0324 2.62366M8.88965 14.2807H11.1754V6.28066H8.88965V14.2807ZM64.8896 1.70928V15.4235C64.8896 15.7266 64.7692 16.0173 64.5549 16.2317C64.3406 16.446 64.0499 16.5664 63.7468 16.5664H50.0325C49.7294 16.5664 49.4387 16.446 49.2244 16.2317C49.0101 16.0173 48.8896 15.7266 48.8896 15.4235V1.70928C48.8896 1.40617 49.0101 1.11548 49.2244 0.901147C49.4387 0.686816 49.7294 0.566406 50.0325 0.566406H63.7468C64.0499 0.566406 64.3406 0.686816 64.5549 0.901147C64.7692 1.11548 64.8896 1.40617 64.8896 1.70928ZM53.461 6.28066H51.1754V14.2807H53.461V6.28066ZM53.7468 3.99503C53.7468 3.20603 53.1071 2.56641 52.3183 2.56641C51.5294 2.56641 50.8896 3.20603 50.8896 3.99503C50.8896 4.78391 51.5293 5.42353 52.3183 5.42353C53.1071 5.42353 53.7468 4.78391 53.7468 3.99503ZM62.6039 10.0407C62.6039 7.52641 61.7696 6.05216 59.3354 6.05216C58.8272 6.05223 58.3267 6.17737 57.8783 6.41653C57.4298 6.65569 57.0471 7.00152 56.7639 7.42353V6.28066H54.6039V14.2807H56.8896V10.5435C56.8597 10.2723 56.8858 9.99776 56.9665 9.73705C57.0471 9.47634 57.1806 9.23503 57.3586 9.02812C57.5365 8.82122 57.7552 8.65316 58.0009 8.53439C58.2466 8.41563 58.5141 8.3487 58.7868 8.33778C60.1125 8.33778 60.3183 9.64066 60.3183 10.5435V14.2807H62.6039V10.0407Z" fill="#0A66C2"/>
</svg>
