<svg width="803" height="527" viewBox="0 0 803 527" fill="none" xmlns="http://www.w3.org/2000/svg">
<path d="M698.978 329.952L695.379 325.667V330.981L698.978 329.952ZM698.978 329.952L697.093 333.723C707.81 350.111 714.641 358.116 730.174 367.833L729.911 367.514M698.978 329.952L729.911 367.514M729.911 367.514C725.119 356.993 734.627 361.336 702.139 327.563M702.805 327.563H700.364L703.47 323.792L697.093 323.126L690.603 316.027L688.273 318.135L694.817 325.667" stroke="#5D4E64" stroke-width="0.5"/>
<path d="M173.279 226.846C178.07 241.143 182.921 248.553 193.231 261.309M197.584 263.667C188.459 262.353 183.284 261.117 170.557 229.93V220.679L167.655 211.973L169.469 210.703L171.464 219.772L175.273 223.763V228.66L179.082 226.846L184.887 239.906V244.803H187.245L197.584 263.667Z" stroke="#5D4E64" stroke-width="0.5"/>
<path d="M223.767 84.9035C220.415 81.0956 220.025 78.9282 222.162 77.7304M222.162 77.7304C228.335 64.2101 239.979 66.8888 237.925 76.0364M222.162 77.7304C223.393 77.0406 225.462 76.6725 228.286 76.4978M237.925 76.0364C237.898 76.1582 237.868 76.2812 237.836 76.4054C234.067 76.34 230.862 76.3384 228.286 76.4978M237.925 76.0364C235.623 72.4824 233.84 71.787 229.526 73.2893M224.521 84.9035C223.372 81.4025 223.566 79.5095 228.286 76.4978" stroke="#5D4E64" stroke-width="0.5"/>
<path d="M169.461 115.646C158.336 103.988 154.352 97.0852 157.408 83.1236L154.679 89.0368V83.1236C151.958 87.799 150.585 90.4548 152.86 96.3147H149.675L152.86 103.138L149.675 101.773L151.494 108.596M151.494 108.596L167.415 118.376M151.494 108.596C145.96 104.502 135.165 96.3147 136.257 96.3147C137.348 96.3147 133.684 94.2445 131.017 96.3147C116.128 89.5367 108.895 83.7001 98.7589 68.3789C101.935 75.9281 103.975 80.0735 109.65 86.7761C102.597 82.4979 99.0729 79.8923 93.3135 75.0019C95.3124 81.2848 97.3426 85.0384 103.327 88.0038M109.65 90.4348C107.143 89.6626 105.068 88.8666 103.327 88.0038M103.327 88.0038L93.8729 86.7761C98.6509 90.7266 102.969 93.5647 108.271 95.6847M133.303 100.816C122.057 99.6692 114.488 98.1706 108.271 95.6847M108.271 95.6847C105.173 95.1146 99.0295 94.1419 99.0943 94.8296C99.3671 97.722 106.951 101.191 115.431 103.138M133.303 104.064C128.639 105.199 121.784 104.595 115.431 103.138M115.431 103.138H100.633C107.581 108.995 111.917 111.49 120.163 110.956M121.826 110.813C121.254 110.873 120.7 110.921 120.163 110.956M120.163 110.956L102.646 111.879C108.919 115.248 114.1 116.837 121.826 116.263M137.454 113.299C131.077 114.981 126.068 115.948 121.826 116.263M121.826 116.263L106.198 118.376C111.671 121.389 115.43 122.407 126.444 120.048M129.64 120.048L108.271 124.192C111.394 125.817 121.687 126.348 125.497 124.192M141.598 115.646C130.851 119.66 125.53 122.909 117.09 130.111C123.688 129.554 126.753 129.016 131.017 127.625M133.303 126.678C127.268 129.086 124.266 130.514 120.163 133.308H129.64L141.598 118.982C135.095 127.241 131.623 132.575 124.431 138.044H131.017M131.017 138.044C133.403 132.599 142.436 122.221 144.203 122.653M131.017 138.044L127.628 144.674C127.628 144.674 134.731 143.964 137.454 139.583C140.178 135.202 147.258 125.92 147.163 126.678M137.928 139.583L136.034 147.516C140.973 143.155 148.949 130.736 147.873 130.111M140.296 144.674V146.924H145.032C146.978 140.331 148.534 136.547 154.03 129.283M154.03 127.625C152.704 127.625 148.899 127.625 147.163 127.625L148.702 124.192H146.216L147.163 121.35L144.203 121.942L145.032 118.376L144.203 116.851V113.299H139.704C140.099 111.918 140.77 109.321 140.296 109.984C139.822 110.647 138.52 110.908 137.928 110.956V107.853C136.665 107.143 134.329 105.769 135.087 105.959C135.844 106.148 136.182 104.157 136.257 103.138L133.903 101.773L135.087 98.0262M135.208 147.516H116.445L126.16 150.437L117.207 154.057C124.587 152.691 139.204 150.056 138.637 150.437C138.07 150.818 128.305 153.39 123.493 154.628L137.928 152.723C130.704 154.882 116.445 159.2 117.207 159.2C118.16 159.2 138.256 155.58 136.732 156.152C135.513 156.609 123.207 160.724 117.207 162.724C120.584 164.104 123.487 164.315 127.628 163.289M135.208 160.724C132.202 161.911 129.752 162.763 127.628 163.289M127.628 163.289C126.454 163.546 121.906 166.702 119.779 168.248C124.63 170.167 127.981 170.238 131.16 168.729M138.637 162.724C135.862 165.549 133.56 167.59 131.16 168.729M131.16 168.729C129.78 169.2 127.017 174.915 126.922 177.391C128.087 177.172 132.162 174.355 136.034 171.269M142.351 165.676C140.853 167.255 138.484 169.316 136.034 171.269M136.034 171.269C134.201 171.615 131.535 178.189 131.779 182.058M131.16 182.058C139.814 176.876 143.532 173.506 147.399 166.343M143.018 172.057L143.685 180.915L148.828 169.772C149.272 173.168 150.275 179.962 150.732 179.962C151.19 179.962 152.955 168.47 153.78 162.724L155.59 179.01C154.197 171.267 152.87 166.923 157.114 159.2C159.707 157.652 164.864 154.407 164.74 153.816M152.479 151.976C152.671 154.89 153.604 156.063 157.114 157.127M142.351 150.437C143.488 152.553 146.084 155.119 147.163 154.057M148.828 157.863C149.317 161.843 149.86 163.087 152.479 159.2M142.351 156.152C141.625 158.688 142.095 159.296 144.203 159.2M148.702 148.591C147.124 152.424 150.353 154.198 153.78 151.387M159.985 151.976C163.288 152.936 168.301 144.177 168.374 138.044M155.59 125.484C157.707 126.457 158.998 126.554 161.898 124.192M174.703 126.678C175.586 127.625 174.703 129.283 174.703 129.283M184.269 110.956V113.299M170.14 115.646L176.763 108.596C184.269 101.773 191.334 108.596 190.156 114.887M190.156 114.887V123.214C188.121 121.601 184.236 118.376 184.975 118.376M190.156 114.887C188.738 116.05 185.715 118.376 184.975 118.376M184.975 118.376C179.568 121.782 178.339 126.412 177.333 136.465C176.204 143.296 172.829 147.131 164.74 153.816M164.449 154.057C164.547 153.976 164.644 153.896 164.74 153.816M167.5 152.487C171.831 150.603 175.92 157.522 173.399 159.2M172.25 148.591C176.192 148.83 177.905 149.905 179.222 155.092" stroke="#5D4E64" stroke-width="0.5"/>
<path d="M101.518 182.562C96.9826 174.298 84.5862 175.205 82.4697 182.562C80.5804 187.588 77.3984 189.85 67.4142 192.7C56.5835 194.015 50.7444 196.394 41.1898 206.395C33.0328 215.164 22.2126 215.922 5.5244 219.01L15.5941 221.068M101.518 182.562L108.069 188.509L99.9054 189.416M101.518 182.562C102.516 185.736 102.276 187.273 99.9054 189.416M99.9054 189.416C97.5908 191.984 95.5283 192.877 90.2301 193.245C89.7718 197.035 88.5858 199.062 86.3106 201.024M83.3767 203.223C84.5105 202.444 85.4827 201.738 86.3106 201.024M86.3106 201.024C106.218 216.815 118.071 224.771 144.758 231.781L134.012 233.495M134.012 233.495L119.839 225.396M134.012 233.495L141.332 236.142C134.801 237.101 119.316 232.652 116.175 229.869M115.634 229.134C115.693 229.36 115.879 229.607 116.175 229.869M116.175 229.869C118.797 233.777 120.661 236.091 125.781 240.564M126.069 240.814C125.972 240.73 125.876 240.647 125.781 240.564M125.781 240.564H119.839M119.839 240.564C112.201 232.358 109.582 228.417 104.421 221.191M119.839 240.564C102.644 229.501 94.1887 221.635 79.1905 207.486M119.839 240.564C120.672 242.352 137.389 248.676 146.471 249.38C136.462 249.204 130.305 248.345 117.815 244.708M105.146 232.148C116.324 243.033 121.463 249.302 137.599 259.461C133.021 259.361 122.605 255.715 122.683 254.724M104.421 234.869C113.493 245.335 118.59 251.068 127.722 260.771C117.071 258.892 110.608 254.838 103.712 245.896M95.9748 234.365C98.7475 238.91 101.257 242.713 103.712 245.896M103.712 245.896C104.006 246.274 108.371 255.933 112.403 261.476C103.242 257.867 97.289 254.252 93.613 247.795M88.8191 227.714C89.4268 236.716 90.8999 243.029 93.613 247.795M93.613 247.795C93.5909 253.109 94.1002 255.947 96.9826 260.469C91.4181 256.538 87.629 253.105 85.0209 248.217M80.6556 232.148C81.5336 239.207 82.879 244.202 85.0209 248.217M85.0209 248.217L86.0979 256.034C82.6733 252.752 80.2156 249.883 78.4198 246.626M74.2054 231.14C74.9774 237.927 76.1868 242.576 78.4198 246.626M78.4198 246.626C78.6524 247.037 79.4697 253.607 79.8493 256.84C74.582 252.512 68.3222 243.578 66.9833 233.899M66.8481 227.714C66.6375 229.784 66.7011 231.858 66.9833 233.899M66.9833 233.899C66.2767 232.989 64.2829 246.297 65.6387 247.795C63.0926 248.167 59.5344 239.581 59.5897 232.148M59.9948 228.318C59.7257 229.519 59.5996 230.815 59.5897 232.148M59.5897 232.148L57.4175 240.959C54.4945 235.29 53.5103 232.055 53.3086 226.154C49.6082 223.948 47.9099 224.598 44.9589 226.154C38.6088 236.534 24.5076 255.973 24.016 256.034C23.4454 256.105 25.1173 250.329 25.6679 247.117M15.5941 221.068L16.1941 221.191C16.1941 221.191 23.084 222.967 24.016 218.194L15.5941 221.068ZM15.5941 221.068C14.7357 221.906 1.34562 227.109 1.21305 227.714C0.685527 229.592 7.1417 231.805 10.8916 231.14M31.834 219.01C15.1357 226.167 -1.23514 236.131 6.37946 243.914C7.70521 243.914 33.69 221.243 33.5574 222.437C27.1174 227.27 8.7294 241.267 12.8097 251.574M12.8757 251.736C12.853 251.682 12.8311 251.628 12.8097 251.574M12.8097 251.574L18.8368 245.12M37.6673 224.956L18.8368 245.12M18.8368 245.12C17.7066 249.723 17.5292 252.135 18.8368 256.034C18.7413 256.031 21.7123 252.192 25.6679 247.117M40.3188 228.318C36.3298 233.476 30.3184 241.151 25.6679 247.117M53.3086 222.437C53.947 222.437 55.4324 219.608 56.0953 218.194L61.2657 221.191C61.3541 220.206 61.6634 218.391 62.1937 219.01C62.724 219.63 64.7113 222.083 65.6387 223.232H69.7505H74.2054L76.3793 225.396C76.583 226.37 77.2762 228.318 78.4198 228.318C79.5634 228.318 81.6016 227.915 82.4778 227.714L84.0687 225.396L85.0209 223.232L87.7808 224.956L90.2301 226.154C90.2533 226.154 90.5649 226.154 91.6255 226.154C92.6861 226.154 94.967 225.355 95.9748 224.956C85.4619 223.65 79.756 222.379 71.7392 213.952M64.8453 212.361C65.4884 215.992 69.7149 216.198 71.7392 212.361M59.9948 203.223C61.2689 208.086 62.5295 209.462 66.9833 206.395M74.921 207.486C72.9175 210.513 74.8472 213.539 78.4198 211.3M71.7392 203.876C73.5522 207.463 74.5655 206.553 76.3793 203.876M95.0725 182.562V185.581" stroke="#5D4E64" stroke-width="0.5"/>
<path d="M248.604 327.886C264.559 329.38 271.617 333.704 264.636 346.244M264.636 346.244L267.868 339.78L270.583 344.822H266.187M264.636 346.244C261.758 348.313 260.145 347.777 257.267 346.244C252.723 353.807 248.637 357.224 238.003 361.5C235.579 369.509 233.341 372.294 228.566 375.721M264.636 336.936L263.731 339.78M228.566 375.721L226.109 362.663M228.566 375.721C229.582 376.829 228.282 379.843 226.684 382.225M223.135 385.288C223.598 385.97 225.259 384.349 226.684 382.225M226.684 382.225C229.099 391.224 230.479 396.267 235.159 405.069M222.359 393.563C222.755 396.021 224.502 398.79 226.684 401.03M235.805 405.069C233.552 406.216 229.702 404.129 226.684 401.03M226.684 401.03C227.52 401.833 227.511 410.263 227.402 414.377C225.408 412.819 223.318 410.032 222.153 407.91M221.455 405.069C220.953 405.198 221.313 406.381 222.153 407.91M222.153 407.91C222.415 408.369 220.159 413.188 218.998 415.541C217.512 411.161 216.129 403.793 215.44 398.518M215.249 392.27C214.81 392.033 214.947 394.738 215.44 398.518M215.44 398.518C215.638 399.941 211.172 410.46 208.914 415.541L202.062 408.818L208.914 391.623L200.641 413.472C199.336 409.238 198.816 406.601 198.572 401.03L193.53 411.145L192.754 401.03C195.121 400.167 197.381 398.695 199.362 396.941M199.362 396.941C205.55 391.463 209.018 383.238 204.519 382.225C202.505 387.972 201.376 391.194 199.362 396.941ZM215.44 388.262C208.367 388.262 198.47 373.826 203.341 358.988M215.249 343.4C208.795 348.206 205.103 353.624 203.341 358.988M208.914 360.724C209.517 364.43 210.334 365.67 213.569 364.732M214.344 367.447C216.965 369.974 218.791 369.595 222.153 368.352M206.199 370.033C207.644 372.865 208.691 373.717 211.759 371.455M210.207 378.824C212.753 382.239 214.245 382.307 216.801 378.824M219.128 378.824C220.94 381.169 221.966 381.315 223.782 378.824M213.569 374.558C214.72 376.993 215.422 377.367 216.801 375.204M233.737 344.822C232.96 342.077 232.869 340.768 236.711 341.073M240.977 341.073C236.856 336.434 237.428 335.282 240.977 334.479M231.539 335.772C231.781 330.264 233.003 329.43 236.711 331.118M238.521 327.886C236.785 325.235 237.131 324.492 240.977 325.042M238.003 321.939C236.638 319.722 237.21 319.06 239.814 318.577M233.737 328.662C231.4 325.966 230.918 324.678 235.547 323.878M227.402 347.02C219.158 346.114 215.854 345.039 222.926 339.78M230.376 325.042C221.64 320.224 221.653 321.144 228.566 327.886C221.56 327.846 221.77 329.128 226.109 332.669C216.747 334.955 217.771 335.991 226.109 337.582C224.876 338.387 223.819 339.117 222.926 339.78M230.376 323.878C226.571 319.233 227.237 315.486 232.186 318.577M232.186 317.543C231.965 313.2 232.727 312.981 235.547 316.25M235.547 315.474C235.288 313.746 235.091 312.261 234.959 311.017M245.631 346.244C250.518 333.154 247.676 326.414 240.977 314.569C235.823 304.787 234.162 303.445 234.959 311.017M236.711 304.642C234.688 296.519 232.841 290.004 231.539 283.406M226.109 266.392C225.667 257.083 229.015 247.635 230.376 249.839C228.941 264.447 229.686 274.01 231.539 283.406M231.539 283.406C231.367 282.51 225.155 266.226 222.07 258.196C219.979 262.906 219.869 266.499 222.07 275.071M235.547 302.553C229.825 289.191 226.326 281.586 215.963 266.392C215.45 271.691 215.158 274.66 217.731 281.339M234.959 311.017C228.658 296.997 225.843 289.141 211.624 275.071C211.43 278.961 211.71 282.071 213.07 289.535M230.376 312.517C221.858 302.465 208.028 281.78 208.892 282.303C207.341 286.804 207.845 291.096 211.037 296.807M226.109 316.25C218.723 307.938 213.842 301.825 211.037 296.807M211.037 296.807L205.477 297.956M215.16 312.517L206.963 304.642M206.963 304.642L204.231 298.214L205.477 297.956M206.963 304.642L206.238 304.799M224.16 326.017L210.178 315.474M210.178 315.474L201.017 305.928L203.99 305.285M210.178 315.474C204.463 316.07 203.655 317.323 202.303 319.589L222.07 328.662L217.731 326.017C210.882 326.106 202.631 329.631 205.035 331.118M206.199 331.118C206.811 331.118 215.535 332.753 219.82 333.571C211.092 333.151 206.551 333.235 206.963 341.073L222.926 339.78M203.341 358.988C195.347 357.85 191.011 356.284 184.793 348.943M184.303 348.357C184.468 348.556 184.631 348.752 184.793 348.943M184.793 348.943C188.001 348.474 190.946 349.535 192.017 350.125L198.606 354.946C191.875 349.477 188.445 346.51 184.793 341.928C185.009 342.105 185.22 342.278 185.428 342.447M201.017 348.943C192.837 347.96 189.848 346.041 185.428 342.447M185.428 342.447C187.455 337.117 190.505 335.784 198.606 335.772M187.678 339.78C195.135 339.244 199.371 340.061 206.963 342.447M202.303 334.479C196.869 337.833 184.792 331.131 180.124 323.878C182.642 324.266 187.926 325.042 188.918 325.042C189.91 325.042 183.469 318.213 180.124 314.799M192.017 333.103L198.606 327.886L191.102 323.878L205.035 325.042L180.124 314.799M180.124 314.799L168.325 302.839H174.462L191.102 313.135L201.814 318.577M174.462 302.319C173.962 301.903 163.645 291.815 161.461 285.158C176.399 293.029 184.633 297.198 201.814 308.975M203.99 305.285C187.349 293.204 179.283 285.848 155.845 277.982L160.109 284.014M203.99 305.285L206.238 304.799M157.925 277.982L152.205 269.35C178.64 280.696 188.761 289.258 206.238 304.799M157.925 271.014L154.909 258.846C173.21 270.212 207.325 296.577 205.477 297.956" stroke="#5D4E64" stroke-width="0.5"/>
<path d="M407.021 89.0486L431.617 109.809L434.324 107.101L411.985 89.0486L410.857 86.5664L407.021 89.0486ZM407.021 89.0486H404.898M404.898 89.0486L403.019 91.1027M404.898 89.0486L372.271 103.49M403.019 91.1027L399.38 94.3144M403.019 91.1027L430.238 111.116M431.617 112.129L430.238 111.116M399.38 94.3144C397.061 95.8142 394.905 97.2396 392.864 98.6131M399.38 94.3144L424.517 111.116M361.665 173.668C362.243 187.287 359.381 191.973 353.993 200.069C367.844 193.667 397.787 180.008 400.986 178.279C423.714 151.203 427.012 137.279 427.563 113.152L424.517 111.116M345.193 214.285L323.079 212.706L310.399 222.409V228.465L302.823 232.718M345.193 214.285C345.271 206.471 355.091 204.785 366.404 200.069C372.091 198.016 377.218 195.97 381.861 193.858M345.193 214.285C345.795 218.641 346.419 220.583 348.352 223.171M430.238 111.116L434.324 115.901C433.319 119.96 432.332 123.8 431.345 127.436M326.69 141.851H329.623C330.004 141.612 330.381 141.376 330.756 141.14M326.69 141.851L328.495 129.215C335.366 126.742 339.108 125.137 344.065 118.835C346.976 107.496 349.124 103.462 355.347 107.101H357.604M326.69 141.851C315.03 148.374 308.828 155.559 298.483 176.601C294.313 186.857 291.54 193.695 286.297 201.873M372.271 103.49C372.422 101.535 372.632 97.6234 372.271 97.6234C372.087 97.6234 370.22 97.6234 367.984 97.6234M372.271 103.49L366.108 105.007M357.604 107.101H359.86L361.665 97.6234C362.486 97.6234 363.512 97.6234 364.599 97.6234M357.604 107.101L361.271 106.198M364.937 105.296L364.599 97.6234M364.937 105.296L366.108 105.007M364.937 105.296L361.271 106.198M364.599 97.6234C365.713 97.6234 366.892 97.6234 367.984 97.6234M367.984 97.6234C367.081 99.6091 366.357 103.373 366.108 105.007M361.271 106.198C360.881 110.495 361.705 112.979 366.108 117.622M366.108 117.622C370.007 114.849 373.505 112.302 376.948 109.809M366.108 117.622C357.511 123.737 346.965 130.955 330.756 141.14M415.371 112.129C416.869 115.861 417.147 118.719 416.95 124.702M410.857 105.007C408.445 102.354 406.476 100.402 403.808 99.2955M392.864 98.6131C386.945 102.598 382.005 106.146 376.948 109.809M392.864 98.6131C397.902 97.9384 401.191 98.2108 403.808 99.2955M376.948 109.809C393.735 115.156 403.525 117.815 400.986 140.497M410.857 131.471C411.104 132.37 396.88 144.645 380.557 157.703M348.352 182.017C357.489 175.745 369.504 166.544 380.557 157.703M372.271 123.122C365.628 129.529 343.274 140.279 330.756 141.14M280.431 210.223C281.098 209.343 281.733 208.487 282.339 207.651M286.297 201.873L277.724 206.162L276.37 222.409C274.344 226.198 273.207 228.322 271.181 232.112C271.41 232.316 271.637 232.518 271.861 232.718M286.297 201.873C285.117 203.713 283.813 205.621 282.339 207.651M282.339 207.651C285.889 216.664 292.428 219.796 305.254 224.891M279.079 217.67C289.874 224.505 295.452 225.753 305.254 227.147M277.724 222.409C279.042 223.529 280.278 224.536 281.515 225.474M298.483 234.819C297.492 234.387 296.557 233.971 295.67 233.567M298.483 235.269L293.934 243.679C291.42 243.816 289.263 243.629 287.322 243.163M298.483 235.269L295.67 233.567M298.483 235.269L302.823 232.718M295.67 233.567L289.965 242.829M295.67 233.567C294.004 232.81 292.509 232.098 291.142 231.406M285.807 241.222L291.142 231.406M291.142 231.406C290.063 230.862 289.064 230.33 288.122 229.8M281.515 240.681L288.122 229.8M281.515 240.681C280.384 239.976 279.282 239.162 278.161 238.255M281.515 240.681C283.316 241.804 285.189 242.652 287.322 243.163M288.122 229.8C285.658 228.415 283.585 227.041 281.515 225.474M278.161 238.255L284.579 228.465L275.125 235.652M278.161 238.255C277.174 237.456 276.172 236.585 275.125 235.652M275.125 235.652C274.82 235.379 274.51 235.102 274.196 234.819M281.515 225.474C280.867 226.204 276.366 232.008 274.196 234.819M274.196 234.819C273.448 234.146 272.673 233.445 271.861 232.718M273.05 232.718C274.71 231.669 277.761 226.674 279.079 224.308L280.431 220.463L302.823 232.718M299.212 214.285C305.986 220.45 341.177 204.024 348.352 185.634M292.251 208.755C302.172 213.272 339.548 199.104 345.95 185.634M321.835 190.109C328.291 192.478 350.999 186.744 348.352 183.148M302.823 206.766C308.343 172.176 318.582 156.621 352.383 137.254M312.621 154.734C320.217 150.819 342.642 166 344.065 180.858M345.95 121.055C362.614 114.73 371.302 110.534 385.297 101.599M345.95 135.224C367.936 122.799 380.528 115.119 403.808 99.2955M380.557 157.703L374.13 176.601C382.702 172.596 388.021 169.887 399.38 163.379L372.271 182.017C379.702 200.355 427.705 154.814 424.517 111.116M271.861 232.718V238.255C266.725 242.962 264.736 246.501 262.059 253.725C260.417 259.644 261.538 260.822 265.191 261.184C265.784 264.75 266.697 265.752 269.923 265.638C269.979 265.859 270.037 266.068 270.1 266.267M274.196 270.371C271.631 269.072 270.674 268.083 270.1 266.267M287.322 257.844C285.387 263.473 284.362 266.866 282.868 273.294C280.431 276.774 275.125 276.078 275.125 270.371C275.991 268.793 277.724 265.249 277.724 263.69M282.868 268.979L291.142 263.69C288.887 256.362 287.916 252.225 289.965 244.481M268.233 257.844L275.125 242.829L287.322 243.163M271.861 262.578L270.1 266.267M348.352 223.171L351.921 212.706C350.03 212.706 346.669 212.706 348.352 212.706C348.643 209.081 369.798 206.309 389.347 205.991M348.352 223.171C340.779 238.683 339.149 248.764 345.193 261.669M416.428 212.706L409.596 206.766C403.882 206.1 396.729 205.87 389.347 205.991M416.428 212.706L422.779 218.228H417.653L406.118 212.706C412.02 213.989 415.378 214.742 416.428 212.706ZM395.363 208.292C403.785 214.104 408.856 217.796 418.926 223.171M426.673 227.147C426.404 227.014 426.137 226.881 425.874 226.749M425.874 226.749L438.234 212.706L437.99 206.766M425.874 226.749C423.296 225.463 421.004 224.281 418.926 223.171M434.324 117.622L436.054 159.68M436.206 163.379C433.397 163.379 431.795 139.417 431.345 127.436M436.206 163.379L436.054 159.68M436.206 163.379L436.568 172.183M431.345 127.436C421.303 164.457 411.316 180.465 381.861 193.858M399.38 185.634C410.623 182.642 416.569 179.788 425.874 170.478M381.861 193.858L380.557 200.069C392.688 194.052 417.091 182.017 417.653 182.017C415.611 182.922 395.84 194.429 386.21 200.069L389.347 205.991M438.234 124.702L442.811 132.905L436.054 159.68M438.234 130.015L446.664 140.497C452.525 150.576 464.343 171.321 464.728 173.668C465.114 176.015 465.531 180.212 465.692 182.017M465.692 182.017H471.713L494.594 215.036L502.061 218.228M465.692 182.017C462.185 186.052 458.705 188.518 454.553 190.216M502.061 218.228C489.276 217.628 479.624 216.386 469.208 213.451M502.061 218.228L507.359 231.896L512.658 233.1L515.307 244.179C514.964 244.673 514.628 245.149 514.298 245.608M437.469 194.093L436.568 172.183M437.469 194.093C443.432 193.197 448.173 192.395 452.237 191.064M437.469 194.093L437.99 206.766M436.568 172.183C440.829 180.867 443.46 185.562 452.237 191.064M452.237 191.064C453.034 190.803 453.804 190.522 454.553 190.216M454.553 190.216C456.756 199.359 459.825 204.45 469.208 213.451M469.208 213.451C461.633 211.317 453.655 208.287 443.774 203.957C460.214 215.928 469.161 222.986 494.33 222.508M494.594 222.502C494.506 222.504 494.418 222.506 494.33 222.508M494.33 222.508C485.424 225.385 480.451 227.045 469.208 224.911L485.923 244.179C496.238 247.958 501.007 246.495 507.359 236.472C503.58 243.768 502.304 248.025 484.719 252.609M437.99 206.766L482.07 252.609V256.463L496.433 258.961M514.298 245.608C515.105 246.011 518.594 248.71 520.238 250.009V252.609M514.298 245.608C513.103 247.269 511.98 248.713 510.85 250.009M520.238 254.685C519.642 255.31 519.068 255.9 518.503 256.463M520.238 254.685V252.609M520.238 254.685L536.291 268.401L537.85 273.077L526.472 291.624L523.095 291.021M496.433 258.961L498.689 259.353C499.366 258.981 500.011 258.616 500.628 258.255M496.433 258.961L502.061 266.998C503.407 266.419 504.634 265.865 505.762 265.325M500.628 258.255L505.762 265.325M500.628 258.255C501.659 257.652 502.61 257.059 503.502 256.463M505.762 265.325C509.958 263.319 512.791 261.513 515.369 259.353M503.502 256.463L509.951 264.192L510.85 271.986L516.185 277.752V282.117L511.353 286.586M503.502 256.463C505.617 255.047 507.391 253.604 509.064 251.928M507.359 254.685L511.353 260.763L509.064 251.928M509.064 251.928C509.669 251.322 510.26 250.686 510.85 250.009M515.369 259.353C513.695 255.599 510.448 248.474 510.85 250.009M515.369 259.353C516.431 258.463 517.45 257.512 518.503 256.463M518.503 256.463L514.298 247.983L520.238 252.609M523.095 291.021L522.108 290.845V286.013L520.238 286.87M523.095 291.021L515.307 289.13L520.238 286.87M515.307 289.91C514.298 290.845 513.963 293.183 512.658 292.403C511.614 291.78 510.418 289.13 509.951 287.883L511.353 286.586M503.502 266.998C504.297 268.12 504.599 272.037 504.651 273.856L510.85 277.752L509.951 281.181L511.353 286.586M522.108 264.192L525.693 268.089M520.238 286.87L524.666 282.117M525.693 268.089L529.278 271.986L525.537 281.181L524.666 282.117M525.693 268.089L524.666 282.117M418.926 223.171L414.789 233.386L421.377 237.842L416.428 251.017M416.428 251.017L409.596 231.448C398.178 235.98 391.825 233.46 380.557 222.502L402.35 250.009C400.99 248.542 397.864 244.626 396.233 240.698M416.428 251.017C414.28 254.401 388.855 232.391 389.347 230.286M417.653 252.609L421.377 251.017L438.429 297.394M438.429 297.394L414.033 281.181M438.429 297.394L444.448 300.563C449.563 326.759 454.149 341.237 467.26 366.463C473.914 370.908 473.987 377.88 472.765 391.982C484.672 418.099 491.437 426.076 487.476 442.056C489.804 446.543 489.964 448.973 489.77 453.271C489.23 453.539 488.7 453.8 488.179 454.054M456.892 462.956L455.362 456.074C434.026 445.023 425.094 434.863 416.113 407.649C409.817 391.865 405.719 382.953 393.174 366.463C393.174 365.456 393.174 357.465 393.174 352.598M393.174 352.598C393.174 352.143 393.174 351.715 393.174 351.323L382.763 320.912M393.174 352.598L384.944 328.014M396.233 355.911C405.208 366.378 412.505 373.739 422.738 381.322M396.233 364.576C398.68 366.085 429.396 385.765 444.448 395.415C435.618 390.208 428.683 385.728 422.738 381.322M402.859 370.948L438.429 397.454L424.778 389.299C416.113 387.005 418.144 393.301 424.778 399.493C434.694 415.563 439.979 424.685 446.697 442.056C466.981 456.5 475.878 455.193 485.947 431.097M468.87 458.623C469.278 456.584 467.967 449.108 467.26 445.625M467.26 445.625C476.058 443.806 479.474 439.643 483.398 427.019M467.26 445.625L450.52 407.649L452.559 404.081L448.991 399.493L446.697 389.299L433.953 362.792C422.399 328.783 398.68 260.763 396.233 260.763C393.786 260.763 387.907 242.512 385.274 233.386C386.328 232.732 388.161 231.76 387.058 233.1C385.955 234.439 397.642 257.192 403.624 268.401L389.347 234.848L396.233 240.698M414.789 256.463L396.233 240.698M380.557 224.911L374.13 220.861M364.884 215.036L374.13 220.861M374.13 220.861C355.521 246.405 345.743 260.985 393.174 312.583M393.174 313.857C392.128 311.694 365.236 285.769 351.921 273.077C349.079 268.949 346.848 265.203 345.193 261.669M386.038 310.544L406.428 354.636L422.738 381.322M487.476 454.395C486.432 451.808 484.366 446.783 484.451 447.381C484.537 447.978 484.487 453.251 484.451 455.812M487.476 454.395C486.435 454.896 485.43 455.368 484.451 455.812M487.476 454.395C487.708 454.283 487.943 454.169 488.179 454.054M484.451 455.812C483.415 456.283 482.407 456.723 481.418 457.136M480.609 449.729L481.418 457.136M481.418 457.136C478.422 458.385 475.595 459.382 472.627 460.209M477.727 451.436C477.727 451.863 477.727 456.026 477.727 458.054L475.166 452.397L472.627 460.209M472.627 460.209C471.693 460.47 470.746 460.713 469.774 460.942M471.75 454.395L469.774 460.942M469.774 460.942C466.659 461.678 463.303 462.267 459.39 462.795M465.026 455.812V462.956M465.026 462.956L460.01 456.074L459.39 462.795M465.026 462.956C465.031 464.013 464.965 464.89 464.82 465.663M459.39 462.795C458.988 462.849 458.58 462.903 458.166 462.956H456.274L458.166 452.397M348.352 273.856C348.072 274.722 349.591 277.922 351.921 281.925M364.884 300.563C361.053 296.201 355.519 288.107 351.921 281.925M351.921 281.925C343.468 282.498 346.682 300.474 353.495 305.407M366.561 309.151C369.091 312.086 361.787 324.306 353.495 328.014M328.016 346.056C348.142 344.025 385.276 326.61 382.763 320.912M382.763 320.912L373.804 294.742L384.944 328.014M345.193 261.669C339.539 281.267 334.866 296.019 329.25 310.544M305.361 354.636L303.777 351.323M303.777 351.323L307.262 346.056H313.599C319.979 332.922 324.898 321.801 329.25 310.544M303.777 351.323C281.583 369.69 270.144 383.406 251.817 414.937L250.233 417.155M250.233 417.155L245.797 422.224C246.2 423.198 246.588 424.132 246.969 425.029M250.233 417.155C254.067 422.545 257.085 426.523 260.128 429.828M270.51 438.699L265.124 442.056C264.747 441.963 264.379 441.867 264.019 441.767M270.51 438.699C308.76 423.86 325.288 411.846 349.4 386.423C351.417 386.423 373.936 347.484 384.944 328.014M270.51 438.699C266.415 435.919 263.259 433.23 260.128 429.828M333.875 366.463C343.879 361.166 346.743 357.463 347.499 349.671M265.124 429.828C273.247 428.718 298.668 405.159 305.361 391.982M260.128 429.828C269.426 411.633 277.048 400.157 295.67 377.285L329.25 310.544M246.969 425.029C248.158 424.307 250.475 422.941 250.233 423.252C249.991 423.563 248.553 425.937 247.864 427.085M246.969 425.029C247.27 425.737 247.567 426.422 247.864 427.085M247.864 427.085C248.355 428.179 248.846 429.211 249.355 430.184M253.153 425.029L249.355 430.184M249.355 430.184C250.698 432.749 252.17 434.899 254.113 436.69M255.653 427.697C255.209 428.008 252.394 431.753 251.042 433.586C253.19 432.808 257.42 431.297 257.154 431.475C256.887 431.653 255.015 435.026 254.113 436.69M254.113 436.69C255.356 437.837 256.793 438.836 258.512 439.704M260.128 433.975L258.512 439.704M258.512 439.704C259.491 440.197 260.561 440.648 261.739 441.059M263.321 436.975C263.054 437.42 262.155 439.883 261.739 441.059M261.739 441.059C262.457 441.31 263.216 441.546 264.019 441.767M245.797 423.829L244.032 425.828C240.676 424.109 238.987 423.922 237.831 429.828M237.763 430.184C237.786 430.063 237.808 429.944 237.831 429.828M237.831 429.828L232.221 438.185C238.581 425.828 231.042 420.703 226.225 432.097V433.975M239.035 449.814C236.973 443.961 234.046 440.372 228.86 433.975H226.225M239.035 449.36C235.674 451.848 239.439 461.067 245.797 462.806M252.936 463.352C255.208 467.864 259.805 476.653 260.023 475.708M252.936 463.352L249.094 463.031M252.936 463.352C253.613 463.408 257.943 472.041 260.023 476.35C262.983 482.046 269.29 493.644 270.836 494.476M260.023 475.708C260.241 474.763 258.963 462.473 258.297 456.447H250.392M260.023 475.708V463.352L271.727 494.476C273.807 494.839 275.635 495.266 277.239 495.764M249.094 463.031L246.395 462.806C259.993 494.46 267.096 504.626 278.413 502.053C278.413 501.459 277.63 497.613 277.239 495.764M249.094 463.031L249.938 456.447H250.392M250.392 456.447L264.019 441.767M254.113 444.817L241.67 430.825L239.035 434.369L250.233 445.726M226.225 433.975C216.348 435.902 203.609 449.188 206.585 452.803L208.508 455.879C214.466 446.124 218.437 441.263 230.044 436.975M205.72 452.226C201.628 447.88 192.197 456.521 189.952 465.398C230.394 519.23 251.895 529.818 287.772 516.613C287.919 514.502 288.001 512.573 287.975 510.811M277.239 495.764C285.575 498.356 287.859 502.906 287.975 510.811M287.975 510.811C286.598 510.425 281.747 511.548 280.344 513.344C273.502 509.54 269.617 507.961 261.876 514.011C257.063 507.271 252.921 505.651 243.547 505.813C246.481 503.976 238.342 493.414 230.089 490.19C227.769 481.791 225.927 476.961 218.618 474.167M209.052 455.879C215.193 460.971 215.744 465.021 214.853 473.02C216.251 473.358 217.499 473.739 218.618 474.167M218.618 474.167C224.751 449.48 240.49 458.801 240.907 477.223L243.547 500.874M200.816 470.012C200.767 469.976 200.717 469.935 200.667 469.89M200.667 469.89C198.135 467.586 194.347 453.405 208.027 462.806C213.312 471.225 207.106 477.481 200.667 469.89ZM246.845 512.216C248.905 508.119 256.141 509.365 257.906 515.469C256.955 519.573 245.394 515.469 246.595 512.216M271.369 519.022C265.517 517.678 264.633 516.661 270.719 514.011C273.559 513.604 274.728 514.034 275.924 516.32C275.252 517.863 273.282 519.269 271.62 519.022M488.179 454.054C489.623 459.065 491.306 461.64 496.471 465.663M471.139 479.601C474.201 477.454 470.155 471.838 462.288 470.444C463.669 468.767 464.473 467.518 464.82 465.663M471.139 479.601L468.087 482.246C468.724 492.426 471.342 497.812 477.752 507.171C469.389 514.852 474.138 527.634 481.923 525.993C525.022 518.21 582.302 480.023 572.998 467.873M471.139 479.601C471.633 479.659 472.13 479.7 472.627 479.724M464.82 465.663C472.808 464.171 477.169 462.868 484.451 458.623M466.459 470.444C467.374 471.201 477.585 467.406 482.228 463.831M572.019 466.883C572.402 467.191 572.728 467.521 572.998 467.873M572.998 467.873L567.84 464.753M567.84 464.753C565.593 467.449 564.249 469.061 562.157 471.573M567.84 464.753C564.416 458.37 556.758 458.633 539.451 461.545M561.551 472.299C561.76 472.048 561.962 471.807 562.157 471.573M562.157 471.573C553.909 473.278 551.014 475.895 548.659 483.147C542.769 482.75 539.365 483.604 535.362 488.279M499.766 504.057C500.446 502.763 501.212 501.721 502.087 500.874M500.709 505C498.384 501.321 487.215 500.937 480.609 505.368M477.752 507.987C478.537 506.976 479.51 506.105 480.609 505.368M472.627 479.724C484.195 480.296 496.129 472.037 491.893 466.883C491.893 465.968 495.454 466.476 496.471 466.07L502.91 463.831M472.627 479.724C469.837 481.095 474.586 497.806 480.609 505.368M493.32 460.942C494.106 460.942 494.256 458.054 495.364 458.054M495.364 458.054C496.25 458.054 500.764 461.905 502.91 463.831M495.364 458.054C510.032 455.669 519.578 456.409 538.126 460.209C538.922 460.658 539.35 461.107 539.451 461.545M502.91 463.831C505.317 464.287 507.704 464.644 510.039 464.915M510.039 464.915L511.714 470.444C537.238 470.627 549.043 469.711 550.703 460.209M510.039 464.915C526.378 466.809 540.119 464.445 539.451 461.545M535.362 488.279C534.681 489.074 533.983 489.979 533.252 491.008C525.682 489.068 522.437 491.161 517.217 496.668C509.957 497.285 505.292 497.77 502.087 500.874M535.362 488.279C520.047 487.235 513.129 477.802 499.766 482.246C495.364 483.147 490.665 492.345 502.087 500.874M491.893 516.836C485.687 521.821 472.958 515.027 486.806 507.987C497.794 504.057 502.087 512.36 492.402 516.836M530.96 502.491C523.727 504.997 522.318 503.769 525.772 495.675C536.657 492.702 535.465 495.78 531.469 502.491M559.243 482.246C550.703 485.807 557.921 478.176 557.208 478.176C562.422 476.188 562.613 477.511 559.243 483.147M214.363 487.191C212.264 483.654 211.854 481.806 214.363 479.083C217.665 477.018 219.496 477.449 222.722 482.536C225.634 486.555 226.216 493.064 224.423 492.346C219.947 492.651 217.813 491.233 214.363 487.191ZM229.578 503.907C223.622 496.2 230.089 492.696 236.635 498.202C239.426 500.629 240.071 502.409 239.088 506.56C237.09 508.333 231.831 506.81 229.578 503.907ZM508.578 501.576C498.103 504.383 506.035 511.851 511.714 509.41C519.33 503.387 519.054 498.769 508.578 501.576ZM539.451 492.623C539.288 487.991 541.041 486.664 548.659 487.434C548.009 494.439 547.509 498.129 539.451 492.623Z" stroke="#5D4E64" stroke-width="0.5"/>
<path d="M443.586 6.837C459.811 14.2285 464.152 19.8105 452.869 35.5176M422.941 40.2284C451.067 26.9277 454.67 -4.80115 418.507 1.98765H408.531C407.705 2.40494 407.023 3.24656 406.463 4.37913M416.29 35.5176C422.489 28.3228 424.822 23.4399 426.682 13.0724M420.447 37.0422C423.029 37.721 430.821 27.1777 432.917 20.1386M424.049 35.5176C429.803 35.2258 435.666 22.772 435.134 15.4278M413.658 33.7169L418.507 29.6988M418.124 1.98765C413.935 7.72917 413.613 13.6782 413.658 25.1216C413.201 25.1936 412.564 25.2835 411.814 25.3752M404.496 25.1216C403.91 20.3575 403.957 9.45095 406.463 4.37913M404.496 25.8389C404.913 25.8482 405.346 25.8476 405.789 25.8389M411.814 25.3752C411.669 25.8389 411.814 29.6047 411.814 28.9771M411.814 25.3752C410.122 25.5822 407.857 25.7985 405.789 25.8389M411.814 28.9771C411.814 28.509 408.193 29.6366 406.463 29.5709M411.814 28.9771L412.745 35.5176L405.789 34.2671L406.463 29.5709M405.789 25.8389C405.806 26.347 405.787 27.6859 405.572 28.9771C405.504 29.3874 405.874 29.5485 406.463 29.5709M409.876 53.8133C410.053 53.8529 410.232 53.8739 410.411 53.8776M410.411 53.8776C413.786 53.9479 417.202 47.8483 413.194 44.0402L413.658 35.5176C413.658 37.671 413.658 42.1035 413.658 42.6056C413.658 43.1077 408.862 42.8148 406.463 42.6056L405.916 36.4203M410.411 53.8776C403.958 54.6105 400.976 48.2074 407.007 44.0402M407.814 45.1161C404.612 49.4548 405.405 50.6342 409.427 51.4821M405.916 36.4203L405.789 34.9844C391.944 39.1088 390.329 60.4482 409.427 63.945C410.12 63.9582 410.758 63.9521 411.351 63.927M405.916 36.4203C393.357 40.4376 396.517 60.4482 409.876 60.4482C420.45 60.1193 430.468 49.5795 414.718 36.4203M413.658 34.2671C428.116 40.451 428.795 53.8133 420.447 60.4482M420.447 60.8965C418.007 62.3278 416.265 63.2811 413.658 63.7033C412.961 63.8162 412.202 63.8911 411.351 63.927M406.463 4.37913C400.827 3.03684 396.454 4.11401 368.5 36.4203C354.276 49.3046 313.729 29.5709 299.778 66.1613C327.879 30.2628 346.93 60.8408 366.778 42.6056M291.511 101.297C291.499 101.16 291.488 101.023 291.477 100.886M385.896 25.8389C351.686 84.4778 285.736 29.7815 291.477 100.886M291.477 100.886C291.795 73.976 318.867 73.5372 346.847 62.574M374.011 46.8709C365.483 54.1564 356.115 58.9425 346.847 62.574M394.852 27.925C393.819 29.5709 382.796 39.637 381.934 39.9815M346.847 62.574C314.074 71.5006 276.599 97.0548 304.428 131.783C301.528 102.481 313.189 91.4445 364.367 84.0738M296.85 115.248C293.348 97.2122 326.297 74.3975 347.832 84.0738M355.755 69.7782C371.735 66.9161 380.208 63.311 393.475 49.2822M352.999 86.8296C343.757 88.9567 337.585 90.5961 331.433 93.2898M399.503 58.1953C394.487 84.6592 367.888 99.9441 344.904 97.5082M331.433 93.2898C328.768 94.4564 326.107 95.8208 323.202 97.5082C305.462 109.392 302.959 122.214 317.863 136.778C315.825 134.229 314.64 131.318 314.197 128.288M331.433 93.2898C358.338 97.5082 373.323 87.863 390.202 70.9839M314.197 122.624C315.919 110.244 328.532 98.3821 344.904 102.847C345.872 103.017 343.921 97.404 344.904 97.5082M314.197 122.624C314.496 114.647 332.15 95.728 344.904 97.5082M314.197 122.624C313.933 124.519 313.925 126.426 314.197 128.288M314.197 128.288C319.567 116.645 322.202 108.336 352.999 106.786M411.351 63.927C416.443 69.5216 405.995 87.1529 394.852 93.2898" stroke="#5D4E64" stroke-width="0.5"/>
<path d="M444.456 12.2539C451.538 19.3245 452.951 25.1083 452.207 37.7447L461.68 48.4234C460.72 50.4966 459.614 51.5923 456.315 51.7193M452.207 51.5236C453.871 51.6963 455.215 51.7616 456.315 51.7193M456.315 51.7193C455.76 53.9881 455.845 55.2416 458.063 57.3796C458.261 58.1385 457.531 58.9635 456.315 59.6343M450.312 60.9966C452.494 61.0766 454.788 60.477 456.315 59.6343M456.315 59.6343C455.433 63.315 455.351 65.1705 452.207 65.1302C453.113 73.8233 452.73 77.7513 442.93 75.0951C441.834 74.7126 440.784 74.3433 439.777 73.9801M418.508 58.1046C424.013 67.3915 429.822 70.3895 439.777 73.9801M439.777 73.9801C429.94 73.6202 426.514 83.1204 422.386 97.2517M438.651 38.8219C438.988 36.8502 441.566 36.5429 443.944 35.7804M447.935 32.3814C447.412 34.3748 445.734 35.2065 443.944 35.7804M443.944 35.7804C444.176 36.7173 444.991 37.0742 445.962 36.9522M449.559 34.3542C448.698 35.8602 447.202 36.7965 445.962 36.9522M445.962 36.9522V37.7447C445.962 38.1422 445.188 40.0412 444.802 40.9409M442.133 40.2724C442.491 40.3917 443.344 40.6592 444.252 40.9409M444.252 40.9409C445.11 41.2073 446.018 41.4864 446.6 41.6649C445.615 41.511 443.766 41.1508 444.252 40.9409Z" stroke="#5D4E64" stroke-width="0.5"/>
<path d="M566.319 66.4611V52.9414L577.444 67.2216M566.319 66.4611L587.232 101.528M566.319 66.4611L562.939 61.6025V71.1085M562.939 71.1085L582.977 100.472M562.939 71.1085L558.714 67.7286L560.193 74.324M560.193 74.324L574.135 93.7118M560.193 74.324L541.603 44.9141C545.484 56.5602 548.606 65.2323 553.688 74.324M568.854 96.0355C562.081 87.7177 557.37 80.9107 553.688 74.324M577.444 67.2216L582.977 74.324C592.729 103.395 595.435 117.783 597.157 141.287C604.724 142.906 608.307 142.493 613.103 138.637C621.351 132.919 630.368 137.868 631.798 143.366C631.875 143.602 631.935 143.832 631.98 144.056M577.444 67.2216C575.365 60.0042 576.24 57.0196 580.261 52.9414C578.915 60.424 579.345 64.4282 582.977 71.1085M553.688 74.324C546.772 70.1663 543.212 67.185 537.686 60.4995C541.313 72.8512 544.243 79.4261 556.551 88.3868C548.709 83.2828 544.308 80.4342 537.002 72.9394C539.796 81.3426 542.458 87.0529 547.874 92.1247M560.193 100.472C554.864 97.6465 550.93 94.9873 547.874 92.1247M547.874 92.1247L539.204 90.471C543.32 97.2071 547.079 101.398 557.148 105.908M566.586 109.606C562.916 108.315 559.812 107.1 557.148 105.908M557.148 105.908L544.812 104.657C547.428 108.273 549.9 110.913 553.688 113.069M569.665 118.403C562.234 116.781 557.347 115.151 553.688 113.069M553.688 113.069C550.693 112.684 545.481 111.401 545.362 111.915C544.967 113.619 550.49 117.329 557.148 120.174M571.425 123.902C567.25 123.8 561.909 122.208 557.148 120.174M557.148 120.174L548.991 121.262C550.933 124.28 553.192 126.169 556.685 127.465M569.005 129.84C563.6 129.258 559.687 128.58 556.685 127.465M556.685 127.465C554.314 128.037 552.813 128.579 551.63 129.84C550.289 131.27 555.595 133.859 562.439 135.297M571.425 136.328C568.409 136.296 565.291 135.896 562.439 135.297M562.439 135.297C559.937 136.191 555.403 137.29 555.809 137.868C556.035 138.189 561.817 139.725 567.827 141.023M577.033 142.706C574.481 142.375 571.12 141.735 567.827 141.023M567.827 141.023L561.308 142.706C566.61 146.733 571.021 147.813 582.422 146.885C567.318 149.979 558.714 151.552 530.988 139.377C534.566 142.724 537.684 145.256 541.921 147.459M584.731 142.047L577.033 137.868L581.542 137.208L577.033 132.919L579.562 131.27L574.064 127.465L578.023 125.111L574.064 117.194L578.793 118.403L569.005 107.736L574.135 109.606L570.765 103.227C571.865 102.988 574.064 102.41 574.064 102.018C574.064 101.626 572.964 96.3172 572.414 93.7118C582.376 106.539 596.643 137.104 594.078 138.637M560.193 153.731C551.79 151.635 546.267 149.72 541.921 147.459M541.921 147.459C540.502 147 529.667 143.153 524.426 141.287C525.27 143.381 526.28 145.058 528.916 146.885M544.111 153.731C536.178 150.858 531.663 148.79 528.916 146.885M528.916 146.885C525.961 146.694 522.649 145.123 522.239 146.885C521.629 149.504 530.153 153.426 539.609 155.756M553.688 157.695C549.474 157.715 544.421 156.942 539.609 155.756M539.609 155.756H525.93C527.575 156.683 529.054 157.413 530.988 158.066M541.921 160.429C536.67 159.605 533.458 158.899 530.988 158.066M530.988 158.066L524.426 158.789C527.745 161.443 530.536 163.056 541.921 162.91M555.809 162.206C550.098 162.637 545.568 162.864 541.921 162.91M541.921 162.91C537.456 164.225 529.137 167.617 529.758 166.854C530.615 165.8 550.299 163.957 560.193 164.393M559.422 162.206C560.486 164.472 566.863 169.492 571.425 170.408C571.971 172.584 569.919 173.853 567.827 174.509C565.734 175.165 567.248 176.312 569.005 176.697C572.209 175.911 573.595 174.898 574.87 171.365C575.635 171.365 577.467 172.732 578.287 173.416M578.287 173.416C584.894 170.231 586.074 166.925 587.173 160.429M578.287 173.416C597.157 174.509 606.311 164.393 618.478 151.133C623.561 151.103 628.068 150.219 630.399 148.304M630.399 148.304L636.527 151.133L631.98 144.056M630.399 148.304C631.712 147.226 632.334 145.82 631.98 144.056M625.75 141.937V143.366" stroke="#5D4E64" stroke-width="0.5"/>
<path d="M754.997 91.0769C753.327 94.0093 753.439 95.8488 754.404 98.45M754.404 98.45C754.576 98.9145 754.776 99.4033 754.997 99.9269C759.262 99.5685 760.751 98.4904 761.198 94.9876C772.7 90.6932 777.906 86.9173 785.198 77.9833C790.028 78.29 792.303 77.5933 795.667 74.9558C797.545 76.5661 798.858 77.248 801.848 77.9833C801.347 75.0358 800.55 73.8368 798.634 72.1255C796.172 62.846 789.987 62.1671 781.672 65.3406L778.32 66.2816M754.404 98.45L750.5 99.9269C745.948 101.948 741.847 99.4986 744.214 96.3829C739.106 96.0517 736.264 95.3574 731.398 93.036M731.398 93.036C724.69 97.5719 713.009 98.45 713.009 98.45L707.997 97.7879L708.753 94.9876H706.483L704.339 93.036L706.483 92.3637H701.942C702.068 91.1023 702.421 88.6551 702.825 88.9578C706.715 88.9578 710.792 88.4933 714.76 87.7061M731.398 93.036L733.856 88.201M738.524 77.2264C736.624 79.4584 732.728 81.813 727.816 83.8223M714.76 87.7061L705.6 81.1369C711.123 83.8587 714.113 85.1037 718.971 86.0565M714.76 87.7061C717.7 87.1228 720.58 86.3622 723.279 85.4823M723.279 85.4823C720.101 86.0764 716.378 82.5353 717.332 81.8938C717.763 82.9837 724.532 84.4625 727.816 83.8223M723.279 85.4823C724.862 84.9661 726.382 84.4089 727.816 83.8223M730.544 45.4117L754.997 72.1255L756.089 69.2177L754.997 67.0292M730.544 45.4117C729.611 44.418 728.702 43.4027 727.816 42.3654M730.544 45.4117C737.197 52.4915 745.118 58.478 754.997 63.5499M717.332 33.6962C711.356 25.8418 710.141 21.0678 709.696 12.2539C714.886 23.9421 720.58 33.8894 727.816 42.3654M727.816 42.3654C719.287 36.6769 714.458 32.4505 705.6 19.0765V25.5091M727.816 46.5146L703.593 24.4706C704.05 28.0856 704.668 31.0594 705.793 33.6962M718.971 46.5146C711.535 42.1422 707.831 38.4718 705.793 33.6962M705.793 33.6962C704.454 33.0451 701.73 31.8565 701.548 32.311C702.41 35.9979 705.925 40.4294 710.543 44.4092M731.773 55.1504C725.299 54.4869 716.882 49.8739 710.543 44.4092M710.543 44.4092H704.159C706.046 49.0998 708.384 52.0593 712.96 54.4856M723.279 58.332C718.894 57.0753 715.564 55.8669 712.96 54.4856M712.96 54.4856L707.568 55.1504C710.924 57.6665 713.843 59.5057 718.328 60.7796M737.566 62.9908C728.476 62.7157 722.669 62.0123 718.328 60.7796M718.328 60.7796L712.96 62.3091C718.587 65.5615 723.001 67.0361 727.816 67.3161M740.634 66.0588C735.599 67.023 731.585 67.5353 727.816 67.3161M727.816 67.3161C725.678 68.6393 721.588 71.263 722.339 71.1721C723.969 72.4923 730.814 73.0181 737.004 72.6486M745.747 71.1721C743.721 71.9558 740.465 72.4421 737.004 72.6486M737.004 72.6486L733.856 76.0581C740.549 77.4224 744.35 76.5569 751.201 72.6486M778.32 66.2816L767.861 69.2177C763.229 67.4676 758.956 65.5822 754.997 63.5499M778.32 66.2816L784.203 53.5347L787.641 15.8678C782.734 21.1014 780.803 24.6742 781.672 34.4023M781.672 37.2423L780.616 17.0636C777.032 21.3636 775.602 24.6317 777.626 37.2423M778.32 39.0359L773.59 22.594C771.64 25.8024 771.282 28.1756 772.245 33.6962M777.626 50.6947C773.767 40.6202 771.851 34.9279 770.153 24.4706C767.093 29.1794 766.631 31.9588 768.658 37.2423M770.9 42.3654L763.875 29.9182C762.929 33.2204 762.813 35.5683 763.875 41.278M770.153 48.4526L761.198 37.2423C760.338 43.2126 761.501 46.9229 767.861 54.4856C762.441 52.6945 759.771 51.103 756.089 46.5146C757.044 49.3185 757.644 51.408 759.346 53.5347M765.071 58.332C762.281 56.5409 760.541 55.0286 759.346 53.5347M759.346 53.5347C756.738 53.2177 754.274 53.0997 752.963 53.5347C752.039 53.8415 753.478 55.4513 756.089 57.2136M762.978 60.7796C760.376 59.7872 757.938 58.4622 756.089 57.2136M756.089 57.2136H751.201L754.997 63.5499M760.287 63.5499C761.085 62.909 762.918 61.7636 763.875 62.3091C764.831 62.8545 765.071 60.4733 765.071 59.2146L768.658 59.9619V56.3746L773.59 57.2136V55.1504L777.626 54.4856L778.32 52.3389M792.79 68.4139L791.812 69.2279" stroke="#5D4E64" stroke-width="0.5"/>
<path d="M677.914 209.159C686.513 207.233 689.614 203.866 696.025 200.572M677.914 209.634L647.059 210.294L659.155 212.933M659.155 212.933L668.833 211.503M659.155 212.933L645.739 218.211L668.833 217.112L651.897 226.129H663.554M663.554 226.129C666.963 223.197 673.715 217.508 673.451 218.211C673.121 219.091 664.104 224.92 663.554 226.129ZM663.554 226.129L657.396 232.947C666.23 228.035 683.81 218.211 683.458 218.211C683.019 218.211 661.135 233.167 662.344 233.497C663.312 233.761 680.636 225.103 689.177 220.741C679.223 227.44 674.12 231.502 671.362 242.845M671.912 242.845C673.036 241.957 674.093 241.11 675.098 240.288M693.246 222.06C689.6 226.4 686.636 229.695 683.628 232.673M675.098 240.288L673.451 249.333C675.267 247.318 676.706 245.567 677.914 243.877M675.098 240.288C678.304 237.664 680.983 235.291 683.628 232.673M683.628 232.673C681.865 237.273 680.364 240.448 677.914 243.877M677.914 243.877L676.86 258.46C677.79 257.221 678.65 256.04 679.452 254.896M691.156 231.738C689.342 236.538 687.759 240.374 686.035 243.877M679.452 254.896L682.029 261.869C682.625 258.428 683.568 253.263 684.4 249.333M679.452 254.896C682.131 251.077 684.166 247.672 686.035 243.877M686.035 243.877C685.803 243.268 685.146 245.802 684.4 249.333M684.4 249.333C683.706 251.768 685.585 263.971 688.517 266.708L690.272 258.46M696.545 228.988L690.272 258.46M690.272 258.46C690.403 263.493 690.541 266.293 693.246 270.447L694.512 263.089M699.074 236.576L694.512 263.089M694.512 263.089C695.625 267.633 696.321 270.136 699.705 273.061M699.734 273.086C699.724 273.078 699.715 273.069 699.705 273.061M699.705 273.061C699.584 268.911 699.44 262.745 699.398 257.582M699.398 257.582C699.354 252.223 699.42 247.944 699.734 248.123C700.35 248.475 699.767 254.576 699.398 257.582ZM699.398 257.582C702.276 263.171 704.315 265.491 708.641 268.027C703.635 253.609 701.766 245.217 702.263 228.988L704.243 225.14C707.684 224.636 710.558 223.925 713.061 222.897M683.458 209.634C681.901 210.276 676.534 213.588 675.098 215.022C680.946 215.529 684.096 215.589 688.077 212.933M696.025 200.572C699.22 198.931 703.236 197.308 709.163 195.891C719.947 195.891 716.938 192.798 723.96 191.628C734.116 190.968 737.463 192.33 738.423 198.483L741.265 202.913H735.364C733.721 205.829 732.236 206.674 728.326 206.885C727.783 207.849 727.252 208.765 726.727 209.634M696.025 200.572C692.567 204.307 690.497 206.464 689.177 209.159C690.053 209.539 692.988 209.634 694.345 209.634L690.716 212.933L696.545 214.033L694.345 216.562H699.074L695.225 219.641L699.398 222.06M710.401 209.634C709.435 215.129 707.918 217.597 703.143 220.741M730.635 195.891L729.975 197.427M709.163 225.14C708.311 225.14 704.792 227.669 705.452 227.669C705.98 227.669 710.745 224.487 713.061 222.897M713.061 222.897C713.635 222.505 709.767 227.674 707.762 230.308C708.883 230.308 718.346 223.197 722.937 219.641C717.933 224.461 708.173 233.959 709.163 233.387C710.153 232.816 719.44 225.598 723.96 222.06C716.132 229.211 713.015 233.336 715.349 241.415M713.061 222.897C718.757 220.557 722.538 216.572 726.727 209.634M726.896 225.14C717.748 234.654 713.572 239.978 719.198 249.333M726.126 229.648C718.834 245.571 716.752 252.504 726.896 254.896M729.096 234.927C725.008 254.154 725.909 260.599 735.694 260.989M732.395 240.535C734.264 256.041 736.64 265.446 744.711 265.718C743.282 261.283 741.112 252.399 740.972 253.072C740.418 255.738 747.808 263.719 752.959 264.398M752.959 264.948C751.839 259.279 750.173 255.827 745.921 249.333C746.088 251.022 753.368 258.8 757.358 260.989C754.005 248.786 739.992 243.877 737.258 228.988L734.524 219.641L726.727 209.634" stroke="#5D4E64" stroke-width="0.5"/>
<path d="M529.699 362.568C531.314 343.242 535.353 333.6 554.925 321.085C560.939 316.428 564.199 313.919 569.788 309.674C578.131 303.145 587.2 306.591 592.642 316.93M566.341 318.018C567.083 315.851 586.911 316.386 602.271 319.124M648.145 329.989C662.329 329.754 666.716 327.698 672.813 323.097C655.719 324.528 615.595 322.997 610.961 321.085C608.389 320.342 605.424 319.687 602.271 319.124M619.305 324.548C621.816 325.457 651.467 331.218 665.921 333.073C656.438 339.011 623.477 337.245 624.565 335.975M599.897 324.548C607.365 328.588 635.987 342.022 647.057 345.588C636.942 349.501 629.242 348.787 610.961 341.054M592.642 328.175C594.345 330.255 619.264 346.358 632.365 353.569C622.878 356.396 616.584 354.745 604.613 349.397M584.842 329.989C586.317 332.453 606.494 353.441 616.222 362.568C607.878 366.447 592.642 355.02 584.842 345.588M578.168 332.916C583.309 346.371 586.219 353.911 594.601 366.955C588.724 370.574 580.163 362.586 575.184 353.295M571.243 338.667C570.835 342.829 572.483 348.254 575.184 353.295M575.184 353.295C575.3 355.328 576.219 362.702 577.347 365.664C572.538 364.664 569.163 359.042 567.498 353.295M566.313 345.588C566.313 347.876 566.718 350.599 567.498 353.295M567.498 353.295L566.313 361.556C563.539 358.922 561.809 356.989 561.078 352.728M561.078 352.728C560.835 351.31 560.703 349.633 560.679 347.588C561.149 347.588 555.788 348.057 553.05 348.292C550.851 349.485 551.99 368.563 555.867 377.637C550.536 370.172 547.839 365.921 548.589 357.095C548.673 368.589 547.95 374.569 541.429 382.097C544.074 373.319 544.815 367.955 544.011 357.095C542.049 369.777 540.131 376.282 532.674 384.914V373.784M561.078 352.728L560.092 361.556C556.394 358.083 555.021 355.004 553.05 348.762M536.265 350.405C533.111 350.71 526.163 372.813 526.053 384.914C528.149 382.066 530.46 378.078 532.674 373.784M542.485 348.762C543.549 349.335 538.441 362.597 532.674 373.784M560.092 344.024L563.825 345.588L566.313 342.634H571.243L569.788 336.921H573.089L575.184 332.916L577.347 335.686L578.168 330.745L583.897 332.916L584.842 328.175L589.919 330.745C590.173 329.047 591.074 325.742 592.642 326.113C594.209 326.483 596.421 327.642 597.33 328.175L598.565 324.548L602.271 323.025V319.124M563.825 331.826C565.834 334.468 570.54 333.856 571.243 329.989M566.313 326.113C570.293 326.401 569.416 325.242 567.498 323.025M575.184 327.039C578.455 326.703 578.905 325.504 578.168 322.253M580.655 324.548C584.745 324.282 585.792 323.31 583.897 319.124M583.897 312.323L581.972 313.565" stroke="#5D4E64" stroke-width="0.5"/>
<path d="M705.8 168.358C699.518 154.826 692.454 150.126 672.815 147.563M705.8 168.358C695.692 161.926 689.919 158.253 672.815 147.563M705.8 168.358C705.628 147.734 696.766 144.796 672.815 147.563" stroke="#5D4E64" stroke-width="0.5"/>
<path d="M774.427 163.254C775.589 167.546 776.6 169.775 779.833 173.043C782.284 177.896 779.868 179.478 774.727 182.052C774.919 181.956 787.579 183.313 786.018 170.521C784.757 164.816 781.184 163.242 774.427 163.254ZM774.427 163.254C774.667 163.254 780.973 167.758 782.174 171.242" stroke="#5D4E64" stroke-width="0.5"/>
</svg>
